<svg width="75" height="74" viewBox="0 0 75 74" fill="none" xmlns="http://www.w3.org/2000/svg">
<path d="M49.875 34.3489V13.9724C49.875 11.8835 49.0088 9.87345 47.4412 8.41516L40.3875 1.67554C38.7787 0.138428 36.18 0.138428 34.5713 1.67554L27.5588 8.37575C25.9913 9.87344 25.125 11.8835 25.125 13.9724V18.5837H8.625C4.0875 18.5837 0.375 22.1309 0.375 26.4663V65.8794C0.375 70.2148 4.0875 73.762 8.625 73.762H66.375C70.9125 73.762 74.625 70.2148 74.625 65.8794V42.2315C74.625 37.8961 70.9125 34.3489 66.375 34.3489H49.875ZM16.875 65.8794H8.625V57.9967H16.875V65.8794ZM16.875 50.1141H8.625V42.2315H16.875V50.1141ZM16.875 34.3489H8.625V26.4663H16.875V34.3489ZM41.625 65.8794H33.375V57.9967H41.625V65.8794ZM41.625 50.1141H33.375V42.2315H41.625V50.1141ZM41.625 34.3489H33.375V26.4663H41.625V34.3489ZM41.625 18.5837H33.375V10.7011H41.625V18.5837ZM66.375 65.8794H58.125V57.9967H66.375V65.8794ZM66.375 50.1141H58.125V42.2315H66.375V50.1141Z" fill="#9C0811"/>
</svg>
