<svg width="83" height="64" viewBox="0 0 83 64" fill="none" xmlns="http://www.w3.org/2000/svg">
<path d="M74.5 0.285889H8.5C3.9625 0.285889 0.29125 3.83304 0.29125 8.16846L0.25 55.4639C0.25 59.7993 3.9625 63.3464 8.5 63.3464H74.5C79.0375 63.3464 82.75 59.7993 82.75 55.4639V8.16846C82.75 3.83304 79.0375 0.285889 74.5 0.285889ZM72.85 17.0363L43.6862 34.4568C42.3662 35.2451 40.6338 35.2451 39.3138 34.4568L10.15 17.0363C9.11875 16.4057 8.5 15.3416 8.5 14.1986C8.5 11.558 11.5113 9.98145 13.8625 11.3609L41.5 27.8749L69.1375 11.3609C71.4888 9.98145 74.5 11.558 74.5 14.1986C74.5 15.3416 73.8812 16.4057 72.85 17.0363Z" fill="#9C0811"/>
</svg>
