<svg width="75" height="72" viewBox="0 0 75 72" fill="none" xmlns="http://www.w3.org/2000/svg">
<path d="M67.3239 49.1906L56.8464 48.0477C54.3302 47.7718 51.8552 48.5994 50.0814 50.2942L42.4914 57.5462C30.8177 51.8707 21.2477 42.7663 15.3077 31.573L22.9389 24.2816C24.7127 22.5868 25.5789 20.2221 25.2902 17.8179L24.0939 7.88578C23.5989 3.90506 20.0927 0.909668 15.8852 0.909668H8.74892C4.08767 0.909668 0.210168 4.61449 0.498918 9.06817C2.68517 42.7269 30.8589 69.6066 66.0452 71.6955C70.7064 71.9714 74.5839 68.2665 74.5839 63.8129V56.9944C74.6252 53.0137 71.4902 49.6636 67.3239 49.1906Z" fill="#9C0811"/>
</svg>
