<svg width="475" height="427" viewBox="0 0 475 427" fill="none" xmlns="http://www.w3.org/2000/svg">
<path d="M359.715 3.22741C359.715 4.78878 358.359 6.05322 356.684 6.05322C355.01 6.05322 353.653 4.78878 353.653 3.22741C353.653 1.66798 355.01 0.402588 356.684 0.402588C358.359 0.402588 359.715 1.66798 359.715 3.22741Z" fill="#DADBD8"/>
<path d="M59.847 163.165C59.847 164.773 58.449 166.075 56.7246 166.075C55 166.075 53.6025 164.773 53.6025 163.165C53.6025 161.558 55 160.255 56.7246 160.255C58.449 160.255 59.847 161.558 59.847 163.165Z" fill="#DADBD8"/>
<path d="M56.7244 255.541C56.5743 255.541 56.4536 235.333 56.4536 210.412C56.4536 185.482 56.5743 165.279 56.7244 165.279C56.874 165.279 56.9952 185.482 56.9952 210.412C56.9952 235.333 56.874 255.541 56.7244 255.541Z" fill="#DADBD8"/>
<path d="M173.473 23.0663C173.473 24.6742 172.075 25.9766 170.35 25.9766C168.626 25.9766 167.228 24.6742 167.228 23.0663C167.228 21.4583 168.626 20.156 170.35 20.156C172.075 20.156 173.473 21.4583 173.473 23.0663Z" fill="#DADBD8"/>
<path d="M170.35 208.525C170.2 208.525 170.079 167.478 170.079 116.857C170.079 66.2177 170.2 25.1802 170.35 25.1802C170.5 25.1802 170.622 66.2177 170.622 116.857C170.622 167.478 170.5 208.525 170.35 208.525Z" fill="#DADBD8"/>
<path d="M6.6877 131.776C6.6877 133.498 5.1905 134.893 3.34364 134.893C1.49678 134.893 0 133.498 0 131.776C0 130.055 1.49678 128.658 3.34364 128.658C5.1905 128.658 6.6877 130.055 6.6877 131.776Z" fill="#DADBD8"/>
<path d="M245.275 88.6951C245.275 90.632 243.591 92.2021 241.514 92.2021C239.436 92.2021 237.75 90.632 237.75 88.6951C237.75 86.7572 239.436 85.187 241.514 85.187C243.591 85.187 245.275 86.7572 245.275 88.6951Z" fill="#DADBD8"/>
<path d="M224.634 289.287C224.634 291.224 222.948 292.794 220.87 292.794C218.792 292.794 217.107 291.224 217.107 289.287C217.107 287.351 218.792 285.78 220.87 285.78C222.948 285.78 224.634 287.351 224.634 289.287Z" fill="#DADBD8"/>
<path d="M242.064 88.6946C242.072 88.6946 242.079 88.7974 242.085 89.0012C242.09 89.2234 242.097 89.5223 242.106 89.9085C242.115 90.7275 242.128 91.9075 242.146 93.431C242.162 96.5323 242.186 101.028 242.216 106.7C242.241 118.093 242.275 134.204 242.315 153.16V153.257L242.241 153.326C235.698 159.434 228.537 166.117 221.061 173.095L221.14 172.917C221.14 176.425 221.141 180.142 221.141 183.907C221.11 212.457 221.083 238.3 221.062 257.03C221.026 266.371 220.997 273.937 220.976 279.188C220.954 281.789 220.937 283.814 220.925 285.213C220.913 285.886 220.905 286.406 220.898 286.78C220.889 287.132 220.871 287.313 220.871 287.313C220.871 287.313 220.852 287.132 220.842 286.78C220.836 286.406 220.828 285.886 220.815 285.213C220.804 283.814 220.786 281.789 220.764 279.188C220.745 273.937 220.715 266.371 220.679 257.03C220.658 238.3 220.63 212.457 220.599 183.907C220.6 180.142 220.6 176.425 220.601 172.917V172.813L220.68 172.739C228.166 165.77 235.335 159.096 241.886 152.995L241.813 153.16C241.854 134.204 241.887 118.093 241.911 106.7C241.943 101.028 241.966 96.5323 241.983 93.431C242 91.9075 242.013 90.7275 242.023 89.9085C242.032 89.5223 242.038 89.2234 242.042 89.0012C242.05 88.7974 242.057 88.6946 242.064 88.6946Z" fill="#DADBD8"/>
<path d="M21.1903 362.618C21.129 362.595 21.1546 362.349 21.3786 362.022C21.5982 361.697 22.0467 361.321 22.6481 361.121C23.2507 360.92 23.8526 360.946 24.2436 361.068C24.6397 361.188 24.8255 361.363 24.7943 361.418C24.7308 361.547 23.8481 361.238 22.8302 361.596C21.8007 361.92 21.3274 362.681 21.1903 362.618Z" fill="#17282F"/>
<path d="M23.2084 366.582C23.0592 366.585 23.1469 365.585 24.1107 364.874C25.0662 364.152 26.132 364.292 26.0958 364.428C26.0995 364.572 25.2333 364.666 24.449 365.268C23.6471 365.85 23.3596 366.617 23.2084 366.582Z" fill="#17282F"/>
<path d="M216.093 381.692C216.093 381.692 212.759 305.534 209.683 292.337C205.771 275.549 190.609 265.408 190.609 265.408L184.799 396.382L190.839 399.751L194.395 401.497C195.995 407.065 192.694 408.426 209.035 412.342C210.346 412.655 236.443 416.499 236.443 416.499L239.003 391.785L216.093 381.692Z" fill="#C0776A"/>
<path d="M260.635 415.634C260.635 415.634 251.199 416.234 247.349 417.686C243.168 419.261 238.013 418.344 234.51 416.229C231.007 414.116 228.948 412.183 228.948 412.183L216.087 412.245C216.087 412.245 209.781 406.403 213.244 397.443C213.849 395.881 214.511 394.64 216.085 392.707C217.578 391.138 218.258 390.206 222.41 389.454L239.459 391.867C239.459 391.867 263.088 389.827 267.335 391.6C267.335 391.6 272.689 394.42 274.352 395.613C274.98 396.064 276.981 401.64 273.197 404.634C273.197 404.634 276.604 407.052 274.839 409.316L273.991 410.323C273.991 410.323 276.306 412.997 275.176 414.203C274.047 415.409 264.045 421.139 260.393 419.891C256.742 418.644 259.288 415.84 260.868 415.236" fill="#C0776A"/>
<path d="M270.555 399.834C270.542 399.808 270.103 399.975 269.312 400.275C268.52 400.574 267.371 400.999 265.928 401.458C265.206 401.688 264.41 401.923 263.55 402.154C262.691 402.391 261.752 402.582 260.78 402.896C259.821 403.214 258.785 403.66 258.04 404.511C257.333 405.331 256.868 406.545 257.369 407.676C257.613 408.231 258.111 408.648 258.649 408.905C259.194 409.154 259.777 409.266 260.341 409.308C261.477 409.386 262.542 409.233 263.548 409.087C265.561 408.76 267.308 408.222 268.742 407.716C270.178 407.212 271.31 406.738 272.089 406.409C272.869 406.078 273.292 405.879 273.28 405.855C273.268 405.829 272.823 405.981 272.026 406.269C271.228 406.555 270.08 406.987 268.641 407.456C267.202 407.924 265.464 408.429 263.485 408.731C262.497 408.864 261.438 409.005 260.377 408.925C259.846 408.882 259.313 408.775 258.836 408.555C258.37 408.331 257.956 407.981 257.756 407.521C257.333 406.593 257.72 405.496 258.36 404.751C259.014 403.993 259.986 403.55 260.91 403.237C261.847 402.923 262.785 402.719 263.647 402.465C264.511 402.22 265.308 401.968 266.027 401.719C267.467 401.224 268.603 400.757 269.378 400.415C270.152 400.071 270.568 399.857 270.555 399.834Z" fill="#B85549"/>
<path d="M269.495 393.06C269.483 393.034 269.048 393.202 268.261 393.506C267.473 393.806 266.332 394.239 264.901 394.716C263.47 395.193 261.748 395.712 259.806 396.186C258.849 396.435 257.741 396.64 256.843 397.372C256.403 397.733 256.074 398.259 255.998 398.831C255.915 399.399 256.037 399.981 256.297 400.501C256.828 401.563 257.91 402.229 258.982 402.542C260.068 402.866 261.189 402.866 262.199 402.717C264.232 402.392 265.895 401.677 267.333 401.222C268.709 400.742 269.847 400.345 270.713 400.044C271.509 399.757 271.944 399.586 271.934 399.561C271.924 399.535 271.471 399.657 270.66 399.899C269.782 400.172 268.627 400.529 267.234 400.96C265.784 401.384 264.096 402.07 262.142 402.36C261.167 402.494 260.116 402.482 259.107 402.175C258.113 401.882 257.139 401.265 256.678 400.335C256.192 399.418 256.319 398.278 257.121 397.656C257.89 397.014 258.95 396.787 259.906 396.536C261.857 396.038 263.58 395.488 265.005 394.975C266.431 394.464 267.557 393.989 268.326 393.645C269.096 393.299 269.508 393.083 269.495 393.06Z" fill="#B85549"/>
<path d="M264.682 395.094C264.805 395.091 264.852 394.227 265.097 393.198C265.334 392.169 265.677 391.363 265.568 391.313C265.472 391.261 264.938 392.027 264.686 393.114C264.428 394.2 264.573 395.104 264.682 395.094Z" fill="#B85549"/>
<path d="M229.124 396.073L238.037 392.669C238.037 392.669 262.74 381.327 263.175 381.907C263.61 382.486 264.96 382.396 264.728 385.237C264.497 388.078 250.087 394.078 249.65 395.071C249.211 396.062 250.09 401.014 244.801 404.676C239.512 408.339 235.639 408.491 235.639 408.491" fill="#C0776A"/>
<path d="M235.639 408.491C235.639 408.498 235.711 408.501 235.852 408.494C235.993 408.485 236.202 408.466 236.472 408.425C237.014 408.343 237.808 408.177 238.794 407.857C239.781 407.539 240.955 407.06 242.244 406.376C243.519 405.676 244.967 404.847 246.321 403.62C247.676 402.408 248.768 400.677 249.273 398.665C249.54 397.665 249.618 396.582 249.733 395.528C249.749 395.393 249.777 395.273 249.813 395.165C249.842 395.091 249.932 395.025 250.043 394.937C250.263 394.777 250.513 394.63 250.763 394.483C251.267 394.193 251.794 393.914 252.327 393.633C254.466 392.517 256.745 391.386 259.04 390.095C260.187 389.451 261.341 388.768 262.459 387.991C263.012 387.598 263.559 387.183 264.057 386.695C264.306 386.454 264.533 386.182 264.723 385.873C264.806 385.709 264.89 385.545 264.918 385.347C264.958 385.158 264.944 385.006 264.96 384.831C264.975 384.163 264.934 383.444 264.529 382.815C264.331 382.502 264.006 382.268 263.72 382.091C263.576 381.999 263.448 381.914 263.37 381.82C263.341 381.796 263.39 381.828 263.282 381.741C263.164 381.677 263.144 381.699 263.104 381.693L262.928 381.708C262.833 381.727 262.743 381.749 262.658 381.774C261.315 382.188 260.089 382.719 258.859 383.219C256.415 384.237 254.082 385.261 251.862 386.244C247.424 388.212 243.452 390.027 240.122 391.562C239.288 391.939 238.5 392.331 237.745 392.646C236.975 392.945 236.248 393.228 235.566 393.494C234.215 394.024 233.047 394.482 232.079 394.862C231.148 395.234 230.414 395.528 229.881 395.741C229.65 395.838 229.463 395.915 229.313 395.978C229.186 396.035 229.122 396.066 229.124 396.073C229.127 396.078 229.197 396.059 229.329 396.016C229.483 395.963 229.676 395.896 229.912 395.814C230.454 395.618 231.198 395.346 232.143 395.002C233.118 394.64 234.298 394.202 235.66 393.695C236.347 393.438 237.079 393.164 237.855 392.873C238.63 392.559 239.411 392.181 240.252 391.811C243.613 390.315 247.601 388.54 252.027 386.57C254.251 385.597 256.587 384.579 259.027 383.569C260.247 383.077 261.497 382.542 262.776 382.148L263.007 382.093L263.088 382.083L263.101 382.052L263.116 381.956L263.144 381.927C262.864 382.111 263.074 381.986 263.015 382.031L263.04 382.061C263.176 382.221 263.34 382.32 263.482 382.412C263.768 382.593 264.012 382.771 264.173 383.024C264.501 383.524 264.557 384.185 264.54 384.82C264.526 385.165 264.515 385.429 264.351 385.69C264.19 385.95 263.986 386.2 263.749 386.428C263.283 386.887 262.748 387.294 262.207 387.68C261.111 388.444 259.967 389.124 258.827 389.767C256.547 391.054 254.277 392.19 252.137 393.319C251.602 393.603 251.075 393.885 250.563 394.184C250.307 394.335 250.054 394.484 249.809 394.665C249.699 394.753 249.543 394.861 249.464 395.043C249.411 395.197 249.381 395.343 249.368 395.48C249.252 396.58 249.187 397.609 248.934 398.592C248.457 400.549 247.418 402.23 246.11 403.425C244.809 404.63 243.376 405.477 242.126 406.186C240.861 406.883 239.707 407.377 238.739 407.713C237.769 408.052 236.99 408.24 236.457 408.346C236.19 408.401 235.985 408.431 235.847 408.454C235.709 408.474 235.639 408.485 235.639 408.491Z" fill="#B85549"/>
<path d="M263.177 409.047C263.169 409.025 262.821 409.095 262.227 409.324C261.637 409.553 260.8 409.956 259.905 410.638C259.463 410.984 258.994 411.379 258.572 411.894C258.171 412.397 257.765 413.075 257.892 413.866C258.018 414.663 258.764 415.278 259.592 415.509C260.447 415.759 261.364 415.615 262.205 415.38C265.526 414.367 268.41 413.165 270.405 412.124C271.402 411.605 272.182 411.138 272.702 410.795C273.225 410.454 273.498 410.244 273.483 410.224C273.464 410.199 273.162 410.367 272.615 410.667C272.069 410.969 271.272 411.395 270.266 411.879C268.256 412.848 265.362 414.004 262.084 415.005C261.278 415.232 260.44 415.352 259.714 415.142C258.987 414.942 258.379 414.431 258.274 413.807C258.157 413.182 258.483 412.567 258.854 412.087C259.233 411.6 259.682 411.197 260.097 410.85C261.808 409.477 263.219 409.12 263.177 409.047Z" fill="#B85549"/>
<path d="M78.8939 185.623C76.5916 185.164 75.7357 181.877 77.557 180.485C75.8702 179.622 76.3476 177.137 77.6683 175.833C78.989 174.529 80.8757 173.728 81.9041 172.212C79.7596 172.731 77.33 171.093 77.1873 169.032C75.7686 169.148 74.3247 168.276 73.8603 167.021C73.3951 165.767 73.9534 164.249 75.1468 163.525C73.3448 163.382 73.4977 160.605 75.0033 159.671C76.5086 158.736 78.4938 158.804 80.13 158.087C83.0747 154.988 87.093 152.79 91.4314 151.906C88.9737 150.199 86.5148 148.492 84.0559 146.785C83.4721 146.379 82.8633 145.946 82.571 145.324C81.9285 143.958 83.0768 142.45 84.2914 141.481C86.8612 139.429 90.0969 138.111 93.4581 137.745C94.5365 137.628 95.9179 137.781 96.2614 138.742C98.5525 137.733 101.204 137.839 103.733 137.965C105.152 138.036 106.706 138.16 107.717 139.09C107.178 137.87 106.055 136.98 105.088 136.018C104.121 135.055 103.236 133.843 103.377 132.531C103.519 131.219 105.219 130.084 106.389 130.824C105.079 130.25 105.252 128.288 106.367 127.427C107.481 126.565 109.049 126.494 110.497 126.463C111.507 126.442 112.792 126.598 113.068 127.504C113.528 125.398 117.385 125.105 118.206 127.114C119.566 125.867 122.105 126.053 123.24 127.481C125.455 126.199 128.818 127.366 129.597 129.685C128.29 127.641 126.983 125.598 125.677 123.554C124.936 122.398 124.808 120.229 126.246 120.367C124.182 120.375 123.001 117.747 124.008 116.067C125.015 114.387 127.349 113.751 129.398 113.986C129.994 114.792 130.592 115.597 131.189 116.403C132.572 115.501 134.569 115.52 135.933 116.445C137.298 117.372 137.929 119.138 137.432 120.642C138.262 119.814 139.874 120.266 140.532 121.219C141.189 122.172 141.169 123.384 141.126 124.517C143.129 122.944 146.82 124.774 146.541 127.202C148.357 126.332 150.429 125.933 152.466 126.059C151.548 124.684 151.741 122.747 152.915 121.552C154.089 120.359 156.142 120.01 157.692 120.744C157.884 118.576 160.622 116.968 162.802 117.744C163.441 115.511 166.582 113.859 168.493 115.331C170.468 116.854 169.405 119.805 168.194 121.91C166.88 124.193 165.569 126.476 164.256 128.758C168.529 126.623 172.802 124.488 177.076 122.351C177.476 122.151 177.908 121.945 178.359 121.997C178.978 122.068 179.41 122.593 179.969 122.853C180.743 123.214 181.684 123.033 182.511 123.27C184.774 123.915 184.736 127.136 183.186 128.804C181.637 130.471 179.266 131.268 177.512 132.749C179.41 133.082 181.31 133.417 183.209 133.751C183.922 130.83 187.741 128.963 190.724 130.079C191.5 128.118 194.319 127.868 196.558 127.955C198.564 128.032 200.773 128.189 202.194 129.511C204.011 131.202 203.669 134.173 202.139 136.095C200.609 138.018 198.217 139.144 195.914 140.201C196.297 141.791 198.51 142.28 200.239 142.042C201.967 141.804 203.766 141.174 205.401 141.748C207.622 142.526 208.563 145.204 210.793 145.96C211.469 146.189 212.228 146.225 212.83 146.592C213.685 147.112 213.976 148.134 214.201 149.062C214.479 150.212 214.757 151.362 215.035 152.512C215.172 153.082 215.311 153.672 215.187 154.244C214.78 156.119 211.974 156.525 210.074 155.802C208.175 155.079 206.549 153.68 204.519 153.402C207.194 154.647 210.019 156.019 211.515 158.431C213.012 160.845 212.396 164.594 209.582 165.536C206.733 166.487 203.928 164.191 201.854 162.136C199.781 160.082 196.802 157.894 194.049 159.067" fill="#17282F"/>
<path d="M83.0122 183.976C80.855 182.474 77.1775 184.457 77.4996 186.949C74.8456 187.643 72.6884 189.78 72.1046 192.292C71.5206 194.803 72.5355 197.58 74.6427 199.237C76.3256 200.56 79.6694 200.609 80.0235 198.584C80.7005 200.278 82.342 201.607 84.2368 201.994C82.4124 204.474 83.6058 208.383 86.5574 209.595C83.1301 211.791 83.779 217.581 87.6192 219.069C86.6095 221.163 87.7391 223.925 89.9876 224.86C92.236 225.797 95.1965 224.738 96.1958 222.639C96.9307 224.28 97.7447 226.012 99.3218 227.01C100.9 228.009 103.477 227.834 104.275 226.219C105.146 229.738 110.148 231.704 113.458 229.829C113.224 231.772 114.815 233.755 116.883 234.093C118.948 234.432 121.169 233.074 121.661 231.173C125.242 231.428 128.823 231.683 132.404 231.938C134.781 232.107 137.175 232.277 139.544 232.032C142.57 231.722 145.512 230.727 148.05 229.16C148.867 228.656 149.687 228.074 150.658 227.953C151.773 227.813 152.851 228.304 153.897 228.689C159.422 230.715 166.069 229.802 170.733 226.376C171.468 225.836 172.177 225.227 173.057 224.933C174.072 224.593 175.187 224.709 176.264 224.779C178.902 224.948 181.563 224.807 184.163 224.358C186.395 223.972 188.778 223.228 189.978 221.432C191.178 219.638 190.239 216.642 187.975 216.494C187.924 215.121 188.381 213.657 189.524 212.789C190.667 211.922 192.568 211.89 193.503 212.954C194.438 214.016 193.715 216.008 192.242 216.071C194.527 217.825 198.5 215.939 198.816 213.195C199.13 210.45 196.41 207.932 193.462 207.677C194.234 205.761 194.485 203.666 194.19 201.639C195.522 203.541 198.609 204.122 200.628 202.849C201.701 204.703 203.431 206.336 205.624 206.845C207.817 207.354 210.445 206.452 211.322 204.512C212.198 202.57 210.601 199.913 208.344 199.979C210.14 197.756 208.089 193.944 205.103 193.958C205.82 191.313 204.312 188.293 201.678 187.104C203.321 188.252 206.056 187.512 206.782 185.722C207.965 187.84 211.337 187.616 213.65 186.59C215.465 185.783 217.245 184.569 216.96 182.118C216.826 180.973 216.215 179.906 215.317 179.115C213.192 177.244 210.235 176.901 207.427 176.608C206.038 173.347 205.23 169.872 205.046 166.367C208.179 166.713 211.573 164.795 212.229 161.918L196.671 152.903C196.671 152.903 160.659 147.719 159.366 147.719C158.073 147.719 82.8052 183.855 82.8052 183.855C81.0649 185.553 77.6635 184.787 76.3855 182.763C75.107 180.739 75.6198 178.069 76.9917 176.099C78.3637 174.129 80.4529 172.708 82.4953 171.333C80.0861 171.178 77.515 170.969 75.7316 169.337C74.6183 168.319 74.0978 166.798 74.7004 165.457C75.569 163.523 77.9685 163.655 79.5075 162.554C80.4094 161.909 80.9205 160.913 81.4873 159.995" fill="#17282F"/>
<path d="M183.607 176.341C182.708 164.354 174.078 149.694 161.269 151.039L121.313 160.725C117.422 161.133 114.512 164.25 114.616 167.899L119.037 248.376L109.411 252.668C109.316 252.687 119.377 257.884 119.281 257.904C119.281 257.904 128.523 283.241 154.938 275.374C160.176 273.815 162.544 268.457 163.557 262.951L163.827 262.982C163.835 262.329 172.565 256.097 172.571 255.473C172.565 256.097 163.964 250.925 163.964 250.925L163.943 248.742C163.981 241.478 163.958 238.498 163.964 238.567C163.964 238.567 180.381 235.918 183.639 215.907C185.26 205.955 184.605 189.659 183.607 176.341Z" fill="#C0776A"/>
<path d="M178.214 190.778C178.276 192.131 177.096 193.296 175.582 193.382C174.069 193.466 172.791 192.442 172.73 191.088C172.669 189.735 173.848 188.568 175.359 188.483C176.875 188.398 178.153 189.424 178.214 190.778Z" fill="#17282F"/>
<path d="M179.876 184.845C179.537 185.181 177.444 183.757 174.485 183.783C171.528 183.769 169.366 185.203 169.043 184.867C168.884 184.718 169.228 184.112 170.168 183.465C171.094 182.819 172.678 182.187 174.521 182.183C176.365 182.18 177.92 182.804 178.816 183.445C179.73 184.091 180.043 184.693 179.876 184.845Z" fill="#17282F"/>
<path d="M149.952 190.887C150.014 192.241 148.834 193.405 147.32 193.491C145.807 193.576 144.529 192.551 144.468 191.198C144.406 189.844 145.586 188.678 147.098 188.593C148.613 188.507 149.891 189.534 149.952 190.887Z" fill="#17282F"/>
<path d="M150.792 185.544C150.452 185.881 148.356 184.456 145.398 184.483C142.442 184.469 140.281 185.903 139.957 185.567C139.799 185.418 140.139 184.813 141.083 184.164C142.009 183.519 143.591 182.888 145.436 182.882C147.278 182.88 148.834 183.503 149.731 184.146C150.643 184.79 150.957 185.394 150.792 185.544Z" fill="#17282F"/>
<path d="M161.681 205.935C161.666 205.777 163.503 205.47 166.482 205.095C167.236 205.018 167.951 204.873 168.074 204.392C168.248 203.881 167.927 203.124 167.555 202.306C166.832 200.606 166.075 198.825 165.281 196.958C162.122 189.34 159.829 183.075 160.159 182.958C160.489 182.843 163.318 188.922 166.478 196.539C167.238 198.418 167.965 200.209 168.657 201.922C168.95 202.721 169.449 203.626 169.07 204.685C168.87 205.212 168.318 205.598 167.835 205.723C167.351 205.864 166.926 205.873 166.553 205.897C163.555 206.067 161.692 206.091 161.681 205.935Z" fill="#17282F"/>
<path d="M163.964 238.566C163.964 238.566 149.545 239.525 135.193 231.608C135.193 231.608 142.261 245.294 163.709 243.288L163.964 238.566Z" fill="#B85549"/>
<path d="M162.028 212.154C160.542 210.216 158.145 209.03 155.88 209.113C154.31 209.171 152.78 209.855 151.942 211.146C151.104 212.436 151.08 214.357 152.077 215.725C153.199 217.267 155.293 217.766 156.99 217.377C158.688 216.987 160.078 215.89 161.394 214.793C161.757 214.488 162.129 214.17 162.333 213.73C162.537 213.292 162.535 212.696 162.194 212.293" fill="#B85549"/>
<path d="M152.986 207.898C153.467 207.869 153.495 210.863 156.26 212.971C159.019 215.086 162.442 214.728 162.47 215.147C162.516 215.334 161.711 215.733 160.266 215.779C158.849 215.834 156.776 215.422 155.083 214.133C153.397 212.84 152.663 211.105 152.545 209.876C152.412 208.627 152.766 207.881 152.986 207.898Z" fill="#17282F"/>
<path d="M152.086 179.176C151.8 179.928 148.844 179.592 145.374 180.004C141.896 180.351 139.104 181.316 138.637 180.646C138.43 180.326 138.913 179.617 140.04 178.884C141.156 178.152 142.942 177.452 145.025 177.222C147.108 176.996 149.018 177.292 150.286 177.763C151.564 178.235 152.21 178.82 152.086 179.176Z" fill="#17282F"/>
<path d="M178.73 176.868C178.214 177.497 176.171 176.86 173.719 176.845C171.268 176.749 169.195 177.294 168.712 176.642C168.5 176.324 168.823 175.696 169.725 175.096C170.614 174.5 172.106 174.007 173.791 174.044C175.476 174.083 176.939 174.642 177.797 175.278C178.668 175.917 178.957 176.56 178.73 176.868Z" fill="#17282F"/>
<path d="M114.523 188.397C113.923 189.705 114.399 191.488 115.545 192.226C116.69 192.964 118.326 192.542 119.058 191.32C119.993 192.495 122.145 191.302 121.851 189.77C123.011 190.377 124.534 188.926 124.163 187.567C125.509 188.052 126.313 186.025 127.022 184.669C127.409 183.927 127.941 183.292 128.405 182.606C129.866 180.453 130.663 177.758 130.635 175.066C132.391 173.209 132.842 170.342 133.199 167.684C133.422 166.025 133.645 164.365 133.868 162.706C134.2 162.322 134.533 161.938 134.866 161.553C134.796 162.756 135.737 163.799 136.781 164.142C137.826 164.485 138.944 164.296 140.019 164.104C141.083 163.915 142.147 163.725 143.211 163.536C143.873 163.717 144.535 163.9 145.199 164.082C144.608 165.626 145.189 167.382 145.769 168.931C146.168 170 146.649 171.166 147.602 171.641C148.556 172.118 149.99 171.259 149.711 170.144C150.412 170.897 151.67 170.598 152.301 169.772C152.931 168.946 153.064 167.789 153.034 166.708C152.96 164.077 152.052 161.483 150.505 159.484C152.346 161.106 154.186 162.727 156.027 164.349C156.43 164.705 156.867 165.076 157.381 165.129C157.227 166.001 158.137 166.732 158.935 166.644C159.732 166.557 160.39 165.942 160.993 165.356C162.349 164.038 163.789 161.796 162.593 160.301C163.224 160.191 163.552 159.199 163.133 158.665C165.223 160.161 167.315 161.657 169.405 163.153C168.779 162.81 168.08 163.718 168.216 164.476C168.35 165.235 168.955 165.763 169.518 166.22C168.974 167.003 168.705 168.015 168.781 168.999C167.654 168.046 165.946 169.796 166.303 171.314C166.66 172.833 168.204 173.645 169.618 173.748C170.786 173.835 172.215 173.323 172.431 172.05C173.81 172.327 175.15 170.561 174.663 169.106C175.658 169.733 176.544 168.063 176.605 166.798C176.718 164.475 176.35 162.126 175.539 159.979C175.499 160.304 175.887 160.579 176.137 160.402C176.386 160.226 176.325 159.721 176.041 159.624C177.214 162.317 178.386 165.011 179.558 167.704C180.487 169.836 181.435 172.055 181.472 174.422C181.487 175.384 181.6 176.705 182.466 176.794C182.7 176.818 182.93 176.728 183.147 176.63C185.651 175.499 187.589 173.149 188.848 170.501C189.27 169.612 189.629 168.668 189.729 167.671C189.934 165.607 189.017 163.61 188.869 161.541C188.803 160.629 188.885 159.697 188.688 158.809C188.37 157.378 187.378 156.267 186.428 155.233C183.052 151.564 179.484 147.767 174.948 146.277C172.177 145.367 169.212 145.387 166.433 144.502C164.715 143.955 163.103 143.074 161.442 142.342C154.591 139.328 147.018 138.921 139.664 139.487C135.554 139.803 131.414 140.424 127.582 142.098C123.374 143.935 119.687 146.974 116.22 150.189C111.043 154.988 106.159 160.352 102.851 166.867C100.31 171.872 98.7399 177.715 99.6237 183.371C100.51 189.028 104.255 194.339 109.333 195.52C110 194.808 110.668 194.097 111.335 193.386" fill="#17282F"/>
<path d="M120.387 192.228C120.092 192.101 108.449 188.654 108.554 199.812C108.66 210.971 120.655 208.57 120.673 208.25C120.69 207.929 120.387 192.228 120.387 192.228Z" fill="#C0776A"/>
<path d="M116.976 204.053C116.924 204.018 116.769 204.191 116.418 204.344C116.076 204.494 115.486 204.599 114.86 204.387C113.591 203.965 112.509 202.102 112.432 200.091C112.392 199.076 112.611 198.107 112.99 197.304C113.347 196.484 113.908 195.909 114.544 195.798C115.176 195.656 115.629 196.008 115.779 196.321C115.943 196.631 115.868 196.854 115.931 196.874C115.966 196.901 116.187 196.685 116.086 196.224C116.035 196.003 115.892 195.741 115.609 195.529C115.319 195.313 114.895 195.206 114.453 195.254C113.531 195.321 112.707 196.12 112.291 197.003C111.825 197.889 111.553 198.979 111.598 200.118C111.696 202.367 112.951 204.461 114.685 204.912C115.529 205.11 116.23 204.867 116.589 204.601C116.958 204.323 117.018 204.073 116.976 204.053Z" fill="#B85549"/>
<path d="M159.533 188.818C159.451 188.825 159.54 187.639 158.987 185.613C158.44 183.626 157.018 180.706 153.813 178.447C152.226 177.345 150.227 176.409 147.923 176.034C145.635 175.672 143.054 175.742 140.599 176.616C139.363 177.017 138.171 177.623 137.076 178.388C135.969 179.138 134.964 180.069 134.135 181.148C132.423 183.272 131.459 186.003 131.431 188.816C131.458 191.631 132.422 194.362 134.134 196.488C134.963 197.567 135.968 198.497 137.076 199.247C138.171 200.012 139.363 200.619 140.599 201.02C143.054 201.894 145.636 201.964 147.924 201.603C150.228 201.228 152.227 200.291 153.814 199.187C157.018 196.929 158.44 194.008 158.987 192.023C159.54 189.997 159.451 188.812 159.533 188.818C159.552 188.818 159.554 189.108 159.542 189.664C159.543 189.942 159.528 190.286 159.456 190.688C159.4 191.091 159.346 191.56 159.192 192.07C158.7 194.1 157.309 197.114 154.047 199.472C152.431 200.623 150.381 201.608 148.006 202.015C145.648 202.407 142.979 202.35 140.429 201.458C139.145 201.047 137.907 200.424 136.768 199.635C135.617 198.861 134.57 197.898 133.706 196.781C131.924 194.579 130.916 191.739 130.889 188.816C130.917 185.894 131.925 183.055 133.707 180.854C134.571 179.737 135.618 178.774 136.769 178C137.908 177.211 139.145 176.588 140.429 176.179C142.978 175.287 145.647 175.23 148.006 175.622C150.38 176.027 152.43 177.012 154.047 178.164C157.308 180.522 158.7 183.536 159.192 185.565C159.346 186.075 159.4 186.544 159.456 186.948C159.528 187.35 159.543 187.693 159.542 187.972C159.554 188.528 159.552 188.818 159.533 188.818Z" fill="#33535F"/>
<path d="M193.303 188.818C193.221 188.825 193.309 187.639 192.756 185.613C192.21 183.626 190.788 180.706 187.583 178.447C185.995 177.345 183.997 176.409 181.692 176.034C179.404 175.672 176.824 175.742 174.368 176.616C173.132 177.017 171.94 177.623 170.845 178.388C169.739 179.138 168.733 180.069 167.905 181.148C166.192 183.272 165.228 186.003 165.2 188.816C165.227 191.631 166.191 194.362 167.904 196.488C168.732 197.567 169.738 198.497 170.845 199.247C171.94 200.012 173.132 200.619 174.368 201.02C176.824 201.894 179.405 201.964 181.693 201.603C183.998 201.228 185.996 200.291 187.584 199.187C190.788 196.929 192.21 194.008 192.756 192.023C193.309 189.997 193.221 188.812 193.303 188.818C193.322 188.818 193.324 189.108 193.311 189.664C193.312 189.942 193.298 190.286 193.226 190.688C193.17 191.091 193.115 191.56 192.961 192.07C192.469 194.1 191.077 197.114 187.816 199.472C186.2 200.623 184.151 201.608 181.775 202.015C179.418 202.407 176.749 202.35 174.198 201.458C172.915 201.047 171.676 200.424 170.537 199.635C169.386 198.861 168.34 197.898 167.476 196.781C165.694 194.579 164.684 191.739 164.658 188.816C164.685 185.894 165.695 183.055 167.477 180.854C168.341 179.737 169.387 178.774 170.537 178C171.676 177.211 172.915 176.588 174.198 176.179C176.748 175.287 179.417 175.23 181.775 175.622C184.15 176.027 186.199 177.012 187.815 178.164C191.076 180.522 192.469 183.536 192.961 185.565C193.115 186.075 193.17 186.544 193.226 186.948C193.298 187.35 193.312 187.693 193.311 187.972C193.324 188.528 193.322 188.818 193.303 188.818Z" fill="#33535F"/>
<path d="M165.547 185.715C165.483 185.853 164.115 185.332 162.34 185.285C160.566 185.217 159.164 185.65 159.11 185.507C159.041 185.396 160.453 184.712 162.36 184.781C164.267 184.834 165.624 185.607 165.547 185.715Z" fill="#33535F"/>
<path d="M131.054 190.13C131.094 190.258 128.449 191.042 125.078 191.545C121.707 192.055 118.932 192.085 118.926 191.952C118.917 191.807 121.652 191.553 124.992 191.046C128.332 190.548 131.015 189.988 131.054 190.13Z" fill="#33535F"/>
<path d="M158.038 186.738C158.095 186.737 158.174 187.701 157.895 189.232C157.615 190.755 156.916 192.844 155.543 194.854C154.166 196.855 152.486 198.389 151.023 199.182C149.525 199.993 148.37 199.772 148.408 199.718C148.396 199.633 149.473 199.714 150.825 198.876C152.155 198.054 153.757 196.519 155.085 194.583C156.416 192.636 157.15 190.634 157.52 189.161C157.888 187.683 157.946 186.733 158.038 186.738Z" fill="white"/>
<path d="M188.92 195.231C188.846 195.188 189.361 194.422 190.068 193.147C190.41 192.508 190.789 191.729 191.01 190.824C191.244 189.922 191.229 188.894 191.063 187.816C190.747 185.647 190.115 183.742 189.373 182.498C188.646 181.242 187.913 180.638 187.984 180.574C188.005 180.551 188.213 180.674 188.534 180.957C188.856 181.237 189.285 181.689 189.704 182.317C190.563 183.566 191.279 185.533 191.6 187.747C191.773 188.854 191.775 189.972 191.496 190.932C191.231 191.893 190.798 192.686 190.404 193.318C189.595 194.576 188.973 195.262 188.92 195.231Z" fill="white"/>
<path d="M111.941 207.87C111.958 207.914 111.631 208.009 111.157 208.337C110.689 208.657 110.09 209.276 109.791 210.205C109.478 211.115 109.566 212.385 110.509 213.313C111.398 214.235 113.002 214.806 114.493 214.402C115.986 213.983 117.012 212.727 117.32 211.51C117.661 210.27 117.237 209.09 116.654 208.296C116.067 207.484 115.347 207.006 114.832 206.741C114.312 206.474 113.987 206.385 113.999 206.343C114.004 206.318 114.351 206.341 114.926 206.564C115.492 206.787 116.291 207.244 116.967 208.089C117.635 208.912 118.16 210.216 117.807 211.616C117.487 212.977 116.373 214.395 114.647 214.886C112.909 215.349 111.128 214.686 110.136 213.623C109.626 213.093 109.325 212.441 109.232 211.814C109.137 211.185 109.243 210.594 109.425 210.097C109.804 209.091 110.504 208.463 111.039 208.174C111.582 207.877 111.937 207.848 111.941 207.87Z" fill="#33535F"/>
<path d="M161.588 156.812C161.521 156.771 162.204 156.423 162.393 155.377C162.478 154.878 162.383 154.201 161.855 153.697C161.351 153.196 160.426 152.878 159.566 153.146L159.067 153.303L159.283 152.853C159.643 152.102 159.446 151.007 158.654 150.381C157.887 149.756 156.494 149.756 155.679 150.479L155.284 150.134C155.351 150.054 155.41 149.96 155.449 149.854C155.568 149.515 155.479 149.107 155.257 148.804C155.046 148.498 154.675 148.31 154.285 148.229C153.891 148.151 153.471 148.179 153.087 148.278C152.711 148.367 152.295 148.618 151.744 148.556C151.172 148.459 150.919 148.063 150.624 147.885C150.339 147.659 150.014 147.496 149.698 147.35C149.051 147.077 148.385 146.96 147.777 146.939C146.549 146.895 145.582 147.248 144.987 147.563C144.388 147.886 144.114 148.153 144.078 148.119C144.059 148.106 144.284 147.788 144.876 147.396C145.462 147.015 146.464 146.583 147.783 146.582C148.436 146.581 149.161 146.684 149.879 146.966C150.232 147.118 150.594 147.291 150.919 147.536C151.266 147.769 151.525 148.073 151.816 148.095C152.118 148.138 152.488 147.947 152.943 147.815C153.398 147.692 153.896 147.651 154.394 147.745C154.884 147.84 155.397 148.087 155.704 148.522C156.007 148.94 156.141 149.485 155.964 150.012C155.904 150.177 155.809 150.331 155.7 150.458L155.304 150.113C156.355 149.204 158.011 149.219 158.991 150.014C159.966 150.816 160.163 152.108 159.703 153.032L159.42 152.739C160.507 152.432 161.559 152.851 162.132 153.459C162.733 154.085 162.792 154.88 162.657 155.422C162.525 155.985 162.224 156.355 161.995 156.561C161.76 156.767 161.598 156.827 161.588 156.812Z" fill="#33535F"/>
<path d="M174.955 160.047C174.897 160.003 175.587 159.696 175.975 158.651C176.154 158.143 176.217 157.439 175.854 156.761C175.509 156.094 174.74 155.455 173.749 155.334L173.364 155.286L173.625 155.014C174.267 154.341 174.819 153.312 174.542 152.288C174.417 151.788 174.007 151.375 173.466 151.161C172.935 150.946 172.269 150.972 171.88 151.357L170.353 152.867L171.467 151.066C171.851 150.444 171.917 149.614 171.617 148.889C171.332 148.156 170.624 147.59 169.767 147.411C169.16 147.278 168.513 147.333 167.977 147.577L167.35 147.861L167.608 147.256C167.974 146.399 167.038 145.402 166.106 145.288C165.112 145.131 164.118 145.522 163.27 145.947L162.753 146.206L162.917 145.686C163.12 145.041 162.772 144.333 162.271 143.903C161.755 143.465 161.077 143.248 160.436 143.141C159.131 142.932 157.939 143.035 156.997 143.215C155.097 143.604 154.147 144.25 154.111 144.179C154.099 144.161 154.32 143.992 154.785 143.743C155.249 143.5 155.964 143.181 156.931 142.95C157.896 142.726 159.119 142.581 160.504 142.768C161.19 142.87 161.947 143.082 162.574 143.592C163.174 144.093 163.636 144.927 163.386 145.81L163.034 145.549C163.911 145.101 164.981 144.636 166.194 144.809C166.802 144.896 167.372 145.22 167.761 145.685C168.152 146.137 168.382 146.823 168.108 147.447L167.739 147.126C168.397 146.825 169.171 146.762 169.891 146.919C170.903 147.123 171.784 147.83 172.119 148.71C172.469 149.577 172.391 150.553 171.917 151.311L171.503 151.021C172.1 150.449 173.023 150.459 173.663 150.732C174.325 150.992 174.857 151.55 175.004 152.177C175.309 153.442 174.642 154.55 173.928 155.274L173.805 154.954C174.961 155.124 175.79 155.87 176.152 156.631C176.531 157.411 176.418 158.19 176.192 158.722C175.964 159.27 175.624 159.612 175.377 159.805C175.124 159.999 174.963 160.059 174.955 160.047Z" fill="#33535F"/>
<path d="M203.777 162.378C203.711 162.406 203.912 161.706 203.084 161.006C202.686 160.673 202.07 160.392 201.3 160.407C200.532 160.401 199.677 160.65 198.741 160.971L198.443 161.072L198.485 160.776C198.61 159.887 197.733 158.938 196.601 158.672C195.439 158.398 194.116 158.781 192.792 159.24L191.118 159.821L192.552 158.828C193.334 158.287 193.183 156.956 192.408 156.275C191.592 155.563 190.291 155.43 189.063 155.536L188.902 155.55L187.844 155.64L188.725 155.087C189.803 154.41 189.544 152.643 188.498 152.074C187.428 151.438 185.965 151.715 185.055 152.384L183.953 153.195L184.69 152.08C185.635 150.647 185.444 148.861 184.678 147.689C183.908 146.476 182.578 145.928 181.504 145.8C180.405 145.662 179.525 145.891 178.974 146.103C178.418 146.323 178.155 146.516 178.132 146.487C178.124 146.477 178.183 146.422 178.307 146.326C178.43 146.228 178.63 146.103 178.907 145.968C179.456 145.705 180.367 145.417 181.538 145.521C182.678 145.614 184.154 146.166 185.033 147.486C185.897 148.755 186.156 150.692 185.112 152.325L184.745 152.021C185.788 151.248 187.434 150.889 188.784 151.659C189.456 152.044 189.871 152.757 189.946 153.487C190.032 154.206 189.762 155.057 189.023 155.509L188.846 155.047L189.016 155.033C190.304 154.928 191.759 155.036 192.777 155.917C193.268 156.365 193.54 156.963 193.588 157.568C193.642 158.168 193.402 158.834 192.861 159.206L192.62 158.794C193.954 158.35 195.373 157.926 196.719 158.258C198.016 158.585 199.04 159.69 198.87 160.823L198.614 160.629C199.561 160.33 200.472 160.086 201.306 160.12C202.141 160.13 202.831 160.477 203.23 160.861C203.65 161.246 203.802 161.674 203.826 161.954C203.849 162.239 203.787 162.381 203.777 162.378Z" fill="#33535F"/>
<path d="M188.678 136.796C188.687 136.815 188.451 136.941 187.968 137.034C187.487 137.134 186.763 137.161 185.874 137.135C185.001 137.125 183.889 137.069 182.86 137.556C182.351 137.798 181.933 138.209 181.808 138.776C181.66 139.318 181.82 139.99 182.357 140.249L181.988 140.492C181.877 139.848 181.021 139.439 180.248 139.012C179.461 138.589 178.628 138.184 177.724 137.999C176.807 137.8 175.886 137.915 175.158 138.367C174.431 138.792 173.953 139.519 174.05 140.221L174.134 140.839L173.629 140.427C172.577 139.566 171.276 139.146 170.111 139.074C168.936 138.977 167.894 139.191 167.094 139.479C165.473 140.079 164.845 140.927 164.782 140.856C164.763 140.842 164.907 140.638 165.241 140.307C165.581 139.984 166.149 139.559 166.975 139.212C167.798 138.872 168.888 138.607 170.14 138.678C171.381 138.724 172.796 139.142 173.966 140.075L173.547 140.28C173.408 139.354 174.028 138.442 174.869 137.951C175.699 137.415 176.836 137.279 177.839 137.505C178.842 137.712 179.716 138.147 180.516 138.582C180.914 138.807 181.309 139.009 181.686 139.286C182.053 139.551 182.414 139.935 182.489 140.421L182.563 140.897L182.119 140.666C181.302 140.241 181.157 139.317 181.349 138.674C181.51 137.982 182.082 137.451 182.664 137.202C183.863 136.679 185.014 136.801 185.888 136.845C186.775 136.911 187.469 136.93 187.943 136.88C188.418 136.839 188.668 136.765 188.678 136.796Z" fill="#33535F"/>
<path d="M161.938 127.137C161.932 127.203 161.387 127.054 160.524 127.32C160.104 127.459 159.603 127.698 159.173 128.118C158.737 128.522 158.374 129.117 158.312 129.808L158.287 130.08L158.011 129.991C157.313 129.769 156.412 130.267 156.038 131.025C155.657 131.805 155.767 132.797 155.934 133.8L156.097 134.785L155.441 133.977L155.338 133.85C154.897 133.345 154.163 133.109 153.485 133.135C152.793 133.148 152.17 133.424 151.719 133.849C150.803 134.707 150.552 135.901 150.635 136.819C150.711 137.76 151.022 138.497 151.237 138.993C151.459 139.491 151.605 139.762 151.569 139.782C151.54 139.797 151.333 139.56 151.047 139.078C150.769 138.597 150.387 137.857 150.252 136.852C150.118 135.868 150.325 134.539 151.366 133.521C152.346 132.48 154.532 132.209 155.758 133.531L155.891 133.696L155.398 133.873C155.238 132.867 155.092 131.776 155.57 130.817C156.042 129.898 157.158 129.267 158.156 129.588L157.856 129.771C157.957 128.954 158.408 128.295 158.914 127.868C159.416 127.425 159.981 127.197 160.45 127.083C160.923 126.974 161.312 126.988 161.563 127.024C161.817 127.07 161.943 127.117 161.938 127.137Z" fill="#33535F"/>
<path d="M138.357 142.404C138.35 142.431 138.089 142.413 137.647 142.255C137.216 142.09 136.595 141.774 136.021 141.181C135.449 140.599 134.91 139.731 134.788 138.657C134.736 138.133 134.759 137.615 134.433 137.286C134.126 136.933 133.467 136.71 133.061 136.126C132.258 134.942 132.681 133.374 133.758 132.73L133.734 133.099C132.499 132.088 131.791 130.941 131.431 130.11C131.068 129.271 131.008 128.744 131.053 128.736C131.115 128.719 131.275 129.216 131.702 129.993C132.127 130.765 132.861 131.821 134.055 132.747L134.31 132.945L134.03 133.115C133.21 133.614 132.877 134.933 133.514 135.848C133.789 136.281 134.377 136.477 134.838 136.966C135.322 137.504 135.239 138.161 135.286 138.617C135.368 139.572 135.818 140.381 136.311 140.948C137.333 142.102 138.406 142.318 138.357 142.404Z" fill="#33535F"/>
<path d="M131.412 146.827C131.412 146.849 131.257 146.874 130.961 146.887C130.665 146.894 130.228 146.88 129.68 146.784C128.6 146.595 127.009 146.039 125.691 144.671L126.041 144.666C125.346 145.501 124.181 146.104 122.868 146.229C122.211 146.285 121.518 146.221 120.853 146.007C120.216 145.765 119.513 145.464 119.134 144.75C119.005 144.473 118.988 144.215 118.921 144.025C118.855 143.842 118.747 143.685 118.583 143.558C118.258 143.3 117.792 143.165 117.338 143.043C116.88 142.934 116.362 142.782 115.948 142.513C115.531 142.264 115.139 141.798 115.181 141.272L115.522 141.495C114.364 141.927 113.163 141.867 112.227 141.565C111.272 141.283 110.554 140.78 110.062 140.3C109.571 139.812 109.305 139.337 109.17 139.006C109.045 138.668 109.015 138.479 109.037 138.474C109.116 138.437 109.282 139.228 110.271 140.106C110.762 140.53 111.455 140.97 112.347 141.202C113.224 141.455 114.314 141.473 115.33 141.074L115.692 140.932L115.671 141.297C115.653 141.609 115.882 141.906 116.234 142.117C116.591 142.336 116.995 142.457 117.478 142.568C117.95 142.695 118.472 142.824 118.931 143.176C119.16 143.349 119.345 143.603 119.437 143.875C119.524 144.143 119.544 144.375 119.63 144.545C119.858 145.015 120.475 145.333 121.034 145.536C121.616 145.727 122.232 145.791 122.82 145.747C123.999 145.647 125.051 145.125 125.687 144.401L125.861 144.202L126.037 144.395C127.231 145.701 128.712 146.295 129.737 146.544C130.781 146.795 131.413 146.769 131.412 146.827Z" fill="#33535F"/>
<path d="M88.7593 162.305C88.7478 162.307 88.727 162.248 88.6968 162.132C88.6635 162.015 88.626 161.841 88.6073 161.608C88.5677 161.146 88.5865 160.443 88.8665 159.606C89.1257 158.764 89.6378 157.807 90.3196 156.78C90.6725 156.276 91.0015 155.711 91.5198 155.186C91.779 154.93 92.0757 154.681 92.4609 154.51C92.8325 154.33 93.3634 154.289 93.785 154.512L93.4446 154.719C93.3207 153.555 93.9234 152.251 95.1372 151.54C96.3488 150.835 98.0851 150.89 99.303 151.805L98.8679 152.004C98.8461 151.274 99.2354 150.561 99.8714 150.116C100.512 149.654 101.43 149.571 102.178 149.854C102.595 150.008 102.97 150.267 103.239 150.604L102.751 150.773C102.707 150.297 102.979 149.86 103.32 149.59C103.665 149.313 104.095 149.146 104.541 149.115C105.419 149.061 106.177 149.391 106.851 149.667L106.522 149.763C107.064 148.949 107.969 148.454 108.861 148.24C109.761 148.023 110.685 148.049 111.51 148.242C113.171 148.631 114.455 149.463 115.584 150.134L115.298 150.361C115.159 150.08 115.214 149.711 115.407 149.484C115.59 149.251 115.836 149.113 116.075 149.011C116.56 148.819 117.054 148.753 117.516 148.807C118.394 148.931 119.107 149.173 119.666 149.415C120.224 149.66 120.625 149.907 120.883 150.085C121.141 150.266 121.262 150.379 121.251 150.391C121.222 150.432 120.691 150.029 119.58 149.601C119.026 149.393 118.315 149.185 117.479 149.095C117.084 149.059 116.633 149.132 116.224 149.31C115.811 149.48 115.46 149.842 115.657 150.216L115.952 150.77L115.372 150.442C114.231 149.794 112.954 149.011 111.402 148.67C110.635 148.502 109.8 148.491 108.991 148.693C108.189 148.892 107.417 149.334 106.969 150.018L106.849 150.2L106.639 150.113C105.966 149.838 105.273 149.562 104.582 149.612C103.938 149.646 103.236 150.159 103.29 150.733L103.375 151.62L102.802 150.903C102.599 150.648 102.309 150.446 101.979 150.324C101.38 150.103 100.685 150.167 100.194 150.52C99.6944 150.863 99.3832 151.439 99.3999 151.99L99.4175 152.535L98.9647 152.188C97.9488 151.41 96.4259 151.349 95.4016 151.941C94.3585 152.532 93.8058 153.679 93.9005 154.679L93.9411 155.094L93.5612 154.885C92.9834 154.566 92.2797 155.005 91.8238 155.454C91.346 155.914 90.9963 156.474 90.634 156.966C89.9345 157.964 89.4067 158.878 89.1184 159.682C88.5167 161.299 88.8456 162.307 88.7593 162.305Z" fill="#33535F"/>
<path d="M91.7768 177.06C91.7612 177.069 91.6665 176.96 91.5052 176.74C91.3459 176.52 91.1117 176.191 90.8712 175.728C90.6432 175.267 90.3747 174.653 90.4413 173.882C90.4767 173.505 90.6016 173.103 90.8504 172.729C91.0971 172.36 91.4989 172.011 92.035 171.882L91.9236 172.154C91.4344 171.491 91.3136 170.497 91.8195 169.657C92.3244 168.821 93.4809 168.299 94.6186 168.547L94.3688 168.902C93.8369 168.25 93.9295 167.31 94.45 166.66C94.9913 165.996 95.8896 165.691 96.7567 165.659C97.2033 165.639 97.6218 165.715 97.9632 165.656C98.3015 165.608 98.5253 165.391 98.7117 165.053C98.9053 164.732 99.0448 164.301 99.4101 163.966C99.7432 163.624 100.217 163.393 100.684 163.312C101.704 163.116 102.661 163.247 103.566 163.247C104.463 163.262 105.348 163.142 105.896 162.617C106.167 162.36 106.358 161.996 106.638 161.654C106.924 161.302 107.316 161.033 107.733 160.869C108.568 160.538 109.527 160.593 110.261 160.997L109.944 161.31C109.402 160.507 109.726 159.558 110.238 158.989C110.776 158.373 111.574 158.135 112.263 158.055C113.676 157.931 114.849 158.231 115.797 158.465C116.742 158.727 117.449 159.028 117.914 159.256C118.379 159.485 118.609 159.637 118.598 159.655C118.569 159.716 117.596 159.169 115.724 158.716C114.794 158.521 113.61 158.267 112.314 158.414C111.681 158.502 111 158.733 110.575 159.245C110.146 159.735 109.936 160.512 110.338 161.065L110.912 161.855L110.021 161.378C109.426 161.058 108.619 161.018 107.929 161.3C107.586 161.442 107.279 161.655 107.048 161.944C106.807 162.235 106.618 162.616 106.275 162.955C105.92 163.282 105.465 163.508 104.99 163.62C104.514 163.726 104.035 163.745 103.561 163.747C102.624 163.745 101.673 163.632 100.805 163.804C100.403 163.875 100.06 164.053 99.8067 164.309C99.533 164.545 99.4049 164.916 99.1863 165.289C99.0031 165.66 98.5794 166.089 98.0569 166.146C97.5635 166.219 97.1502 166.128 96.7776 166.15C96.0187 166.171 95.2703 166.44 94.856 166.945C94.4427 167.443 94.3844 168.183 94.7519 168.627L95.1776 169.144L94.501 168.984C93.5995 168.769 92.6106 169.19 92.1984 169.862C91.7664 170.54 91.8455 171.397 92.239 171.955L92.3879 172.167L92.1266 172.227C91.2584 172.428 90.8244 173.26 90.7401 173.913C90.6516 174.592 90.8691 175.194 91.0628 175.649C91.4895 176.564 91.8226 177.037 91.7768 177.06Z" fill="#33535F"/>
<path d="M92.6878 207.734C92.6826 207.751 92.4911 207.719 92.1632 207.575C91.8394 207.43 91.3731 207.161 90.9286 206.668C90.4914 206.185 90.0667 205.452 90.0188 204.534C89.9657 203.632 90.2811 202.558 91.1295 201.721L91.1056 201.99C90.582 201.296 89.946 200.516 89.7003 199.483C89.5775 198.967 89.6108 198.397 89.8252 197.871C90.0344 197.349 90.4685 196.837 91.1066 196.623L91.0535 197.068C90.1229 196.528 89.6472 195.456 89.7045 194.437C89.7346 193.853 89.9178 193.279 90.2614 192.793C90.5809 192.304 91.1618 191.935 91.6614 191.752C92.1778 191.541 92.4151 191.316 92.4307 190.828C92.4536 190.343 92.5681 189.8 92.794 189.353C93.2322 188.412 94.0941 187.82 94.8082 187.342C95.5369 186.853 96.2073 186.389 96.8443 185.985C98.1091 185.168 99.2843 184.679 100.146 184.54C100.573 184.46 100.914 184.458 101.141 184.465C101.368 184.482 101.486 184.5 101.485 184.517C101.486 184.567 101.005 184.525 100.193 184.731C99.379 184.925 98.2819 185.437 97.064 186.277C96.4477 186.713 95.7836 187.181 95.0768 187.679C94.3627 188.179 93.6174 188.72 93.251 189.543C93.0563 189.954 92.9678 190.373 92.946 190.871C92.9252 191.12 92.8741 191.445 92.6462 191.702C92.4276 191.953 92.1413 192.084 91.8904 192.2C90.8859 192.533 90.2968 193.445 90.2457 194.459C90.1979 195.338 90.6059 196.221 91.3387 196.648L91.7999 196.917L91.2857 197.092C90.353 197.411 89.9897 198.543 90.1927 199.389C90.3894 200.288 90.9661 201.046 91.4762 201.747L91.5834 201.894L91.4533 202.017C90.6882 202.738 90.3675 203.701 90.3863 204.522C90.3988 205.353 90.7516 206.041 91.1337 206.517C91.931 207.482 92.7315 207.673 92.6878 207.734Z" fill="#33535F"/>
<path d="M109.605 194.628C109.6 194.645 109.336 194.62 108.864 194.48C108.395 194.34 107.716 194.071 106.967 193.561C106.221 193.053 105.405 192.286 104.811 191.207C104.527 190.679 104.231 190.013 104.445 189.268C104.547 188.896 104.877 188.558 105.274 188.408C105.653 188.245 106.232 188.24 106.591 188.616L106.185 188.845C105.959 188.293 105.656 187.652 105.814 186.905C105.903 186.544 106.113 186.198 106.463 185.955C106.816 185.692 107.354 185.697 107.702 185.792C108.064 185.868 108.441 185.982 108.635 185.909C108.83 185.854 108.874 185.621 108.851 185.244C108.831 184.461 109.191 183.685 109.767 183.111C110.694 182.181 112.161 181.72 113.439 182.132L113.094 182.428C112.84 181.504 112.859 180.382 113.656 179.65C114.069 179.295 114.614 179.171 115.121 179.22C115.623 179.259 116.157 179.559 116.325 180.042L115.867 180.13C115.79 178.719 116.195 177.439 116.79 176.455C117.368 175.454 118.13 174.738 118.809 174.241C119.499 173.746 120.122 173.474 120.554 173.324C120.992 173.186 121.235 173.142 121.241 173.161C121.275 173.233 120.276 173.432 118.984 174.442C118.355 174.95 117.653 175.658 117.131 176.626C116.593 177.575 116.245 178.79 116.337 180.1L116.467 181.928L115.879 180.187C115.676 179.586 114.546 179.495 114.005 179.994C113.426 180.521 113.367 181.468 113.609 182.304L113.739 182.753L113.264 182.601C112.23 182.267 110.965 182.649 110.163 183.455C109.669 183.952 109.376 184.59 109.389 185.237C109.39 185.408 109.405 185.605 109.342 185.832C109.281 186.064 109.082 186.29 108.818 186.376C108.282 186.515 107.925 186.322 107.587 186.27C107.241 186.191 106.99 186.194 106.764 186.348C106.541 186.498 106.373 186.75 106.309 187.011C106.18 187.547 106.41 188.133 106.633 188.681L107.134 189.908L106.227 188.911C105.868 188.517 104.982 188.871 104.87 189.388C104.691 189.934 104.908 190.542 105.168 191.042C105.699 192.074 106.449 192.832 107.141 193.349C108.553 194.386 109.64 194.554 109.605 194.628Z" fill="#33535F"/>
<path d="M136.694 163.548C136.666 163.599 136.037 163.436 135.094 162.95C134.631 162.698 134.082 162.347 133.642 161.775C133.222 161.212 132.908 160.425 133.115 159.585C133.159 159.397 133.245 159.219 133.336 159.059L133.449 159.408C132.701 159.047 132.25 158.378 132.119 157.742C131.979 157.093 132.188 156.497 132.467 156.107C133.058 155.301 133.758 155.223 133.751 155.273C133.796 155.343 133.205 155.543 132.782 156.279C132.58 156.64 132.453 157.132 132.593 157.646C132.723 158.157 133.111 158.686 133.692 158.958L133.931 159.07L133.806 159.306C133.741 159.428 133.675 159.56 133.642 159.705C133.479 160.342 133.714 161.018 134.055 161.514C134.407 162.013 134.887 162.375 135.3 162.65C136.149 163.189 136.736 163.477 136.694 163.548Z" fill="#33535F"/>
<path d="M149.271 158.121C149.183 158.096 149.848 157.489 149.652 156.28C149.547 155.706 149.16 155.015 148.38 154.7C147.628 154.379 146.52 154.437 145.796 155.073L145.458 155.371L145.369 154.943C145.263 154.435 145.075 153.911 144.753 153.457C144.446 153.011 143.947 152.623 143.404 152.557C142.541 152.447 141.572 153.194 141.807 153.861L141.297 153.957C141.17 152.906 140.555 152.003 139.816 151.445C139.073 150.875 138.21 150.656 137.5 150.617C136.045 150.558 135.263 151.079 135.234 150.996C135.22 150.975 135.39 150.833 135.765 150.663C136.139 150.498 136.733 150.309 137.509 150.307C138.273 150.304 139.242 150.504 140.095 151.115C140.938 151.714 141.653 152.702 141.817 153.901L141.305 153.997C141.124 153.465 141.404 152.865 141.843 152.535C142.276 152.188 142.86 151.998 143.467 152.056C144.262 152.161 144.832 152.658 145.201 153.184C145.57 153.719 145.766 154.3 145.872 154.858L145.445 154.728C146.382 153.942 147.68 153.928 148.563 154.334C149.49 154.748 149.898 155.597 149.964 156.238C150.041 156.902 149.838 157.417 149.651 157.718C149.456 158.021 149.286 158.136 149.271 158.121Z" fill="#33535F"/>
<path d="M202.241 330.839L218.013 324.761C218.013 324.761 215.36 306.027 208.569 288.532C202.894 273.919 193.582 267.349 190.665 265.579L190.609 265.407L185.906 262.753L165.643 250.597C169.206 265.697 140.21 281.192 115.546 248.765L74.7798 264.132L85.4463 371.752L75.3356 419.357L177.325 419.081L177.34 419.995L199.04 419.803L194.395 398.678C196.419 378.361 202.905 353.691 202.15 337.391C202.258 335.342 202.28 333.143 202.241 330.839Z" fill="#F03D5F"/>
<path d="M197.672 373.157C197.69 373.162 197.774 372.898 197.915 372.393C198.063 371.84 198.262 371.101 198.512 370.173C198.772 369.21 199.073 368.027 199.363 366.642C199.662 365.258 200.042 363.689 200.341 361.934C200.671 360.184 201.023 358.265 201.306 356.191C201.643 354.125 201.873 351.902 202.141 349.564C202.595 344.884 202.9 339.72 202.905 334.294C202.878 328.867 202.552 323.702 202.08 319.023C201.802 316.686 201.563 314.463 201.217 312.398C200.926 310.326 200.567 308.408 200.229 306.658C199.923 304.905 199.537 303.338 199.234 301.955C198.938 300.57 198.633 299.388 198.367 298.427C198.115 297.5 197.913 296.761 197.763 296.21C197.619 295.704 197.534 295.442 197.516 295.446C197.498 295.45 197.547 295.721 197.656 296.234C197.782 296.792 197.95 297.536 198.161 298.47C198.393 299.439 198.667 300.625 198.936 302.011C199.21 303.397 199.57 304.966 199.85 306.721C200.162 308.47 200.498 310.386 200.77 312.456C201.095 314.519 201.316 316.737 201.58 319.068C202.023 323.736 202.332 328.885 202.359 334.295C202.354 339.703 202.066 344.852 201.641 349.521C201.387 351.853 201.175 354.072 200.857 356.136C200.595 358.206 200.266 360.123 199.961 361.873C199.686 363.628 199.334 365.199 199.065 366.586C198.802 367.974 198.534 369.161 198.305 370.131C198.098 371.066 197.932 371.811 197.808 372.368C197.701 372.882 197.653 373.153 197.672 373.157Z" fill="#17282F"/>
<path d="M197.915 372.392C197.933 372.396 197.913 372.564 197.858 372.883C197.785 373.255 197.697 373.711 197.59 374.263C197.336 375.46 196.998 377.195 196.603 379.341C195.849 383.633 194.937 389.61 194.937 396.248C194.94 399.565 195.178 402.72 195.547 405.572C195.965 408.419 196.465 410.968 197.026 413.079C197.267 414.145 197.579 415.085 197.813 415.921C198.042 416.759 198.282 417.47 198.478 418.05C198.649 418.589 198.792 419.032 198.907 419.396C199 419.706 199.04 419.871 199.022 419.876C199.005 419.883 198.93 419.729 198.804 419.429C198.662 419.074 198.488 418.639 198.278 418.112C198.05 417.539 197.781 416.835 197.523 416.001C197.26 415.169 196.92 414.231 196.654 413.165C196.043 411.054 195.499 408.496 195.053 405.633C194.653 402.765 194.398 399.586 194.395 396.247C194.396 389.564 195.372 383.565 196.226 379.278C196.67 377.135 197.065 375.406 197.383 374.223C197.53 373.677 197.652 373.228 197.751 372.859C197.84 372.55 197.897 372.389 197.915 372.392Z" fill="#17282F"/>
<path d="M34.1688 339.585L55.0789 283.804C55.0789 283.804 60.6036 267.37 77.1735 263.311L89.0257 319.103L83.5281 349.615L34.1688 339.585Z" fill="#F03D5F"/>
<path d="M93.1052 304.478C93.1239 304.481 93.1187 304.642 93.0927 304.948C93.0531 305.312 93.0063 305.753 92.949 306.285C92.8168 307.443 92.5774 309.116 92.2245 311.174C91.5396 315.295 90.3019 320.94 88.7998 327.137C87.3016 333.339 85.9569 338.95 85.0522 343.026C84.613 345.006 84.2511 346.637 83.9814 347.855C83.8583 348.376 83.7562 348.808 83.6725 349.165C83.5956 349.464 83.5464 349.618 83.5281 349.615C83.5098 349.612 83.5228 349.451 83.5647 349.147C83.6216 348.786 83.6907 348.347 83.7733 347.819C83.9603 346.667 84.2739 345.007 84.676 342.957C85.4852 338.86 86.773 333.227 88.2709 327.028C89.7731 320.831 91.067 315.211 91.8467 311.114C92.2474 309.068 92.5431 307.406 92.7408 306.257C92.8366 305.732 92.9178 305.296 92.9844 304.935C93.0458 304.634 93.0875 304.476 93.1052 304.478Z" fill="#17282F"/>
<path d="M170.088 253.983C170.106 253.984 170.099 254.238 170.065 254.724C170.043 254.965 170.039 255.267 169.984 255.619C169.916 255.978 169.842 256.382 169.758 256.83C169.64 257.279 169.489 257.774 169.318 258.315C169.084 258.834 168.906 259.432 168.564 260.009C167.967 261.206 167.067 262.473 165.868 263.699C163.483 266.179 159.842 268.377 155.486 269.984C151.134 271.668 145.83 272.269 140.454 271.608C135.078 270.907 130.147 269.162 126.183 266.811C122.211 264.465 119.113 261.752 116.665 259.384C114.217 257.005 112.42 254.926 111.209 253.474C110.607 252.745 110.148 252.172 109.849 251.777C109.547 251.383 109.395 251.17 109.411 251.159C109.425 251.149 109.605 251.341 109.935 251.713C110.298 252.126 110.775 252.67 111.374 253.35C112.633 254.762 114.469 256.8 116.94 259.135C119.409 261.459 122.514 264.123 126.448 266.417C130.363 268.709 135.237 270.418 140.525 271.107C145.818 271.756 151.018 271.181 155.302 269.552C159.618 267.986 163.214 265.855 165.586 263.458C166.779 262.271 167.682 261.045 168.291 259.883C168.642 259.322 168.829 258.742 169.075 258.235C169.256 257.708 169.42 257.223 169.553 256.785C169.653 256.345 169.743 255.949 169.823 255.596C169.896 255.25 169.916 254.952 169.957 254.713C170.024 254.234 170.07 253.982 170.088 253.983Z" fill="#FAFAF9"/>
<path d="M82.2482 380.289C85.6228 375.822 84.7091 369.813 84.1593 364.373C83.9613 362.409 84.1215 360.261 84.1094 358.264L85.4464 371.753L84.0605 378.279C83.7292 378.707 83.379 379.128 83.0082 379.537L82.2482 380.289ZM83.2738 349.835C83.255 349.694 83.244 349.615 83.244 349.615C83.2461 349.608 83.2481 349.602 83.2501 349.595L83.2738 349.835Z" fill="#20353D"/>
<path d="M84.0604 378.279L85.4462 371.753L84.1092 358.264C84.1084 358.124 84.1067 357.984 84.1039 357.845C84.0633 355.796 83.4212 350.928 83.2736 349.836L83.25 349.595C83.2532 349.583 83.2566 349.571 83.2598 349.561L83.5281 349.615H83.5286C83.5472 349.615 83.5964 349.461 83.6725 349.165C83.7562 348.808 83.8583 348.376 83.9815 347.855C84.2511 346.637 84.613 345.006 85.0522 343.026C85.9569 338.95 87.3016 333.339 88.7998 327.137C89.4275 324.549 90.0084 322.057 90.5226 319.732C90.2082 330.729 90.4372 343.209 90.0771 354.078C89.7981 362.481 89.261 371.542 84.0604 378.279Z" fill="#BA2C42"/>
<path d="M83.5281 349.615L83.2597 349.561C83.4333 348.957 83.6252 348.253 83.8326 347.464C83.8115 347.587 83.7919 347.706 83.7732 347.819C83.6907 348.347 83.6215 348.786 83.5646 349.148C83.5228 349.451 83.5097 349.612 83.5281 349.615Z" fill="#BA2C42"/>
<path d="M83.5285 349.615H83.5281C83.5098 349.612 83.5228 349.451 83.5647 349.148C83.6216 348.786 83.6907 348.347 83.7733 347.819C83.792 347.706 83.8116 347.587 83.8327 347.464C85.6291 340.612 88.5552 327.356 90.5642 318.392C90.5496 318.837 90.5351 319.284 90.5226 319.732C90.0083 322.057 89.4275 324.549 88.7998 327.137C87.3016 333.339 85.9569 338.95 85.0522 343.026C84.613 345.006 84.2511 346.637 83.9814 347.855C83.8583 348.376 83.7562 348.808 83.6725 349.165C83.5964 349.461 83.5472 349.615 83.5285 349.615Z" fill="#0F191D"/>
<path d="M199.539 306.955C199.542 306.964 199.454 306.996 199.278 307.053C199.071 307.116 198.813 307.195 198.492 307.293C197.759 307.505 196.744 307.797 195.457 308.168C194.139 308.551 192.522 309.002 190.622 309.457C188.727 309.918 186.58 310.499 184.169 310.993C181.768 311.522 179.135 312.099 176.283 312.6C173.444 313.165 170.38 313.619 167.16 314.12C160.706 315.029 153.571 315.795 146.049 316.208C138.521 316.582 131.336 316.564 124.812 316.324C121.553 316.158 118.454 316.022 115.565 315.749C112.67 315.543 109.986 315.235 107.538 314.951C105.083 314.704 102.883 314.34 100.944 314.07C99.0041 313.809 97.3449 313.519 95.9916 313.267C94.6696 313.025 93.6276 312.833 92.874 312.695C92.545 312.63 92.2785 312.575 92.0662 312.534C91.8851 312.494 91.7935 312.471 91.7945 312.462C91.7966 312.453 91.8924 312.461 92.0766 312.482C92.2921 312.512 92.5607 312.549 92.8948 312.595C93.6516 312.71 94.6998 312.87 96.0281 313.073C97.3855 313.294 99.0479 313.555 100.99 313.791C102.931 314.033 105.13 314.373 107.583 314.596C110.032 314.858 112.712 315.144 115.603 315.33C118.488 315.585 121.58 315.705 124.833 315.859C131.342 316.073 138.509 316.077 146.018 315.704C153.522 315.292 160.642 314.542 167.085 313.659C170.299 313.172 173.358 312.734 176.197 312.188C179.047 311.707 181.68 311.151 184.083 310.645C186.495 310.175 188.645 309.619 190.545 309.184C192.449 308.756 194.073 308.333 195.398 307.98C196.697 307.647 197.721 307.385 198.461 307.195C198.788 307.117 199.051 307.055 199.261 307.003C199.443 306.964 199.537 306.946 199.539 306.955Z" fill="#FAFAF9"/>
<path d="M210.852 294.898C210.931 295.017 208.444 296.583 205.297 298.394C202.148 300.205 199.533 301.577 199.455 301.458C199.376 301.34 201.864 299.775 205.012 297.964C208.158 296.152 210.774 294.78 210.852 294.898Z" fill="#FAFAF9"/>
<path d="M92.0059 309.813C92.0028 309.848 91.3834 309.814 90.2665 309.725C89.1495 309.64 87.5377 309.47 85.5514 309.217C81.5795 308.716 76.1162 307.805 70.1941 306.36C64.2722 304.907 59.0324 303.198 55.3085 301.817C53.4459 301.128 51.9519 300.539 50.9337 300.101C49.9143 299.667 49.3576 299.414 49.3723 299.381C49.3869 299.349 49.9717 299.542 51.0155 299.919C52.0564 300.301 53.5694 300.838 55.4448 301.484C59.195 302.776 64.432 304.424 70.332 305.871C76.2312 307.31 81.6608 308.273 85.6083 308.864C87.5821 309.161 89.1828 309.384 90.2915 309.529C91.399 309.679 92.0101 309.778 92.0059 309.813Z" fill="#FAFAF9"/>
<path d="M121.651 386.137L137.509 386.443C137.509 386.443 161.286 378.433 166.176 379.199C170.579 379.888 186.7 389.873 189.86 391.848C190.211 392.07 190.477 392.386 190.624 392.757C191.269 394.382 190.419 396.191 188.701 396.853L188.367 396.982L188.513 397.428C188.691 397.981 188.789 398.608 188.754 399.222C188.635 401.333 185.593 401.975 184.435 400.158L185.043 401.164C185.291 401.575 185.407 402.04 185.379 402.511L185.325 403.424C185.265 404.44 184.541 405.318 183.505 405.633C182.518 405.932 181.433 405.671 180.736 404.955C178.691 402.859 174.274 398.66 171.287 398.196C168.629 397.782 164.202 397.729 161.528 397.74C160.166 397.744 158.954 398.526 158.459 399.709C160.233 399.827 172.587 405.834 176.959 407.982C178.311 408.648 179.325 409.847 179.502 411.263C179.661 412.539 178.97 413.875 176.263 413.285C170.454 412.022 160 407.541 160 407.541C160 407.541 154.608 406.104 151.114 408.402C146.2 411.635 143.948 412.82 139.728 411.515C135.508 410.21 132.397 408.34 132.397 408.34L117.149 409.168C117.149 409.168 109.218 396.289 121.651 386.137Z" fill="#C0776A"/>
<path d="M158.37 390.186C158.39 390.271 160.057 389.773 162.836 389.609C165.596 389.433 169.521 389.732 173.427 391.285C177.335 392.839 180.282 395.276 182.055 397.255C183.852 399.239 184.619 400.704 184.698 400.661C184.721 400.649 184.549 400.277 184.17 399.635C183.791 398.994 183.178 398.094 182.3 397.066C180.566 395.013 177.593 392.488 173.603 390.901C169.616 389.315 165.603 389.06 162.813 389.314C161.409 389.434 160.289 389.643 159.529 389.833C158.769 390.021 158.362 390.163 158.37 390.186Z" fill="#B85549"/>
<path d="M160.888 384.804C160.915 384.905 162.606 384.131 165.538 384.047C168.444 383.931 172.531 384.747 176.352 386.903C180.173 389.067 183.035 391.81 185.067 393.776C186.032 394.731 186.834 395.526 187.456 396.141C188.021 396.699 188.344 397 188.367 396.982C188.39 396.962 188.112 396.625 187.586 396.034C187.06 395.442 186.288 394.596 185.299 393.574C183.32 391.554 180.471 388.747 176.583 386.545C172.688 384.346 168.489 383.556 165.525 383.752C164.039 383.836 162.856 384.088 162.073 384.341C161.675 384.448 161.385 384.587 161.183 384.659C160.983 384.741 160.882 384.79 160.888 384.804Z" fill="#B85549"/>
<path d="M40.2303 340.817C40.2303 340.72 31.9808 375.394 30.9073 381.49C29.6517 388.617 27.5632 405.951 44.6075 409.329C61.6524 412.709 132.397 408.34 132.397 408.34L137.509 386.444L72.6933 377.862L79.773 348.853L40.2303 340.817Z" fill="#C0776A"/>
<path d="M245.506 189.384C245.506 190.221 244.776 190.901 243.879 190.901C242.98 190.901 242.252 190.221 242.252 189.384C242.252 188.547 242.98 187.867 243.879 187.867C244.776 187.867 245.506 188.547 245.506 189.384Z" fill="#17282F"/>
<path d="M214.257 319.233C214.251 319.268 213.853 319.163 213.083 319.157C212.32 319.152 211.166 319.299 209.859 319.903C208.561 320.5 207.113 321.568 205.991 323.185C204.868 324.809 204.108 326.927 203.62 329.324C203.146 331.725 202.73 334.393 202.216 337.237C201.69 340.082 201.131 343.123 200.489 346.312C199.225 352.694 197.726 359.693 196.096 367.025C192.818 381.693 189.785 394.953 187.801 404.59C186.802 409.407 186.032 413.313 185.51 416.013C185.252 417.335 185.049 418.375 184.904 419.122C184.833 419.453 184.777 419.719 184.733 419.929C184.691 420.11 184.665 420.202 184.656 420.2C184.646 420.2 184.655 420.105 184.678 419.92C184.708 419.708 184.747 419.441 184.796 419.105C184.917 418.355 185.088 417.31 185.303 415.98C185.76 413.269 186.473 409.353 187.424 404.524C189.313 394.865 192.288 381.587 195.565 366.923C197.194 359.591 198.708 352.6 199.997 346.227C200.653 343.041 201.228 340.007 201.772 337.166C202.306 334.324 202.742 331.674 203.244 329.253C203.76 326.84 204.561 324.681 205.736 323.031C206.919 321.38 208.423 320.312 209.768 319.726C211.121 319.134 212.31 319.018 213.086 319.056C213.868 319.095 214.257 319.233 214.257 319.233Z" fill="#17282F"/>
<path d="M69.3796 338.392C69.2181 338.127 82.0077 330.424 97.942 321.191C113.882 311.954 126.931 304.683 127.093 304.948C127.254 305.213 114.468 312.913 98.5278 322.15C82.5932 331.385 69.5414 338.657 69.3796 338.392Z" fill="#DADBD8"/>
<path d="M167.069 317.38C167.368 317.28 172.43 330.936 178.374 347.877C184.319 364.824 188.894 378.64 188.595 378.739C188.295 378.839 183.235 365.186 177.289 348.239C171.347 331.298 166.77 317.48 167.069 317.38Z" fill="#DADBD8"/>
<path d="M462.548 317.23L344.586 336.712L331.113 259.211L449.075 239.729L462.548 317.23Z" fill="#DADBD8"/>
<path d="M449.076 239.728C449.104 239.752 448.787 240.17 448.157 240.942C447.451 241.786 446.522 242.899 445.36 244.289C442.819 247.255 439.269 251.399 434.912 256.485C425.938 266.8 413.655 280.92 400.049 296.559L399.761 296.89L399.372 296.679C399.075 296.519 398.753 296.345 398.431 296.171C379.841 286.062 363.019 276.915 350.718 270.227C344.716 266.905 339.823 264.198 336.321 262.259C334.706 261.339 333.413 260.603 332.433 260.045C331.551 259.529 331.095 259.243 331.113 259.211C331.132 259.18 331.622 259.403 332.539 259.859C333.543 260.373 334.869 261.051 336.525 261.899C340.07 263.765 345.019 266.373 351.091 269.573C363.43 276.19 380.307 285.242 398.957 295.245C399.279 295.419 399.601 295.593 399.898 295.753L399.222 295.873C412.924 280.313 425.294 266.265 434.331 256.002C438.797 251.006 442.436 246.938 445.041 244.024C446.267 242.686 447.248 241.616 447.991 240.804C448.675 240.076 449.048 239.705 449.076 239.728Z" fill="#E7E8E5"/>
<path d="M344.586 336.712C344.327 336.564 351.351 324.476 360.272 309.715C369.196 294.949 376.637 283.103 376.896 283.252C377.154 283.401 370.132 295.486 361.208 310.252C352.287 325.012 344.845 336.861 344.586 336.712Z" fill="#E7E8E5"/>
<path d="M415.939 275.807C416.141 275.591 426.739 284.69 439.608 296.126C452.481 307.567 462.75 317.014 462.548 317.23C462.346 317.446 451.75 308.35 438.876 296.909C426.007 285.472 415.736 276.023 415.939 275.807Z" fill="#E7E8E5"/>
<path d="M390.064 199.879L309.894 169.152L331.142 116.48L411.312 147.208L390.064 199.879Z" fill="#E7E8E5"/>
<path d="M411.313 147.939C411.322 147.964 410.967 148.106 410.284 148.354C409.527 148.619 408.529 148.968 407.282 149.405C404.584 150.313 400.816 151.582 396.189 153.14C386.721 156.249 373.762 160.505 359.408 165.219L359.106 165.318L358.945 165.047C358.824 164.841 358.691 164.617 358.559 164.393C350.95 151.425 344.066 139.689 339.032 131.108C336.597 126.885 334.613 123.443 333.193 120.978C332.547 119.826 332.03 118.903 331.639 118.204C331.291 117.566 331.12 117.225 331.143 117.211C331.167 117.198 331.384 117.515 331.776 118.128C332.199 118.808 332.758 119.707 333.456 120.829C334.929 123.265 336.987 126.666 339.511 130.839C344.596 139.391 351.551 151.088 359.236 164.013C359.369 164.237 359.501 164.461 359.623 164.667L359.161 164.496C373.543 159.866 386.528 155.685 396.015 152.631C400.674 151.169 404.469 149.978 407.186 149.125C408.453 148.745 409.466 148.441 410.235 148.209C410.933 148.008 411.304 147.914 411.313 147.939Z" fill="#DADBD8"/>
<path d="M309.895 169.884C309.792 169.699 318.734 164.789 329.863 158.919C340.997 153.048 350.104 148.439 350.206 148.625C350.308 148.81 341.37 153.719 330.236 159.59C319.106 165.459 309.998 170.068 309.895 169.884Z" fill="#DADBD8"/>
<path d="M377.12 158.179C377.328 158.12 380.393 167.57 383.967 179.286C387.543 191.005 390.271 200.551 390.065 200.611C389.858 200.671 386.792 191.223 383.218 179.503C379.644 167.788 376.913 158.24 377.12 158.179Z" fill="#DADBD8"/>
<path d="M475 426.031C475 426.139 375.651 426.228 253.125 426.228C130.557 426.228 31.2285 426.139 31.2285 426.031C31.2285 425.923 130.557 425.834 253.125 425.834C375.651 425.834 475 425.923 475 426.031Z" fill="#17282F"/>
<path d="M102.563 261.856L102.555 261.853C102.902 261.189 103.2 260.486 103.437 259.739C103.442 259.726 103.446 259.712 103.451 259.698C103.22 260.455 102.927 261.179 102.563 261.856Z" fill="#C3C5C2"/>
<path d="M102.307 262.306C102.392 262.157 102.475 262.006 102.555 261.853L102.563 261.856C102.482 262.008 102.396 262.158 102.307 262.306Z" fill="#B1B3B1"/>
<path d="M144.988 426.089C141.869 426.089 138.837 426.029 136.697 425.896L137.493 425.928C139.143 425.981 143.164 426.061 147.228 426.061C147.835 426.061 148.443 426.059 149.044 426.055C147.72 426.078 146.346 426.089 144.988 426.089Z" fill="#0F191D"/>
<path d="M136.705 425.73L136.711 425.636L141.318 425.59C141.328 425.634 141.339 425.677 141.348 425.72L136.705 425.73Z" fill="#7A1A2B"/>
<path d="M136.509 425.633C136.509 425.638 136.585 425.643 136.731 425.65C136.921 425.658 137.13 425.665 137.365 425.674C137.999 425.687 138.78 425.704 139.699 425.723C141.671 425.753 144.396 425.76 147.405 425.709C150.414 425.658 153.137 425.557 155.106 425.46C156.024 425.41 156.803 425.367 157.436 425.331C157.671 425.314 157.879 425.299 158.07 425.286C158.214 425.274 158.289 425.266 158.289 425.26C158.289 425.256 158.213 425.256 158.068 425.258C157.878 425.263 157.668 425.269 157.433 425.277C156.799 425.299 156.02 425.327 155.1 425.36C153.131 425.432 150.41 425.516 147.402 425.569C144.395 425.619 141.671 425.628 139.7 425.624C138.78 425.622 138.001 425.62 137.366 425.619C137.13 425.62 136.921 425.621 136.731 425.622C136.586 425.625 136.509 425.628 136.509 425.633Z" fill="#17282F"/>
<path d="M96.6775 422.784L92.1916 421.76L92.1638 421.849L92.8857 418.676C93.961 418.831 94.9221 419.369 95.6259 420.144C96.2979 420.884 96.6766 421.839 96.6775 422.784Z" fill="#BA2C42"/>
<path d="M96.6751 422.918L92.1635 421.851L92.1638 421.849L92.1916 421.76L96.6776 422.784C96.6776 422.829 96.6766 422.873 96.6751 422.918Z" fill="#7A1A2B"/>
<path d="M105.487 423.222C105.517 423.25 105.739 423.094 105.98 422.873C106.222 422.652 106.394 422.45 106.363 422.422C106.332 422.394 106.111 422.551 105.869 422.772C105.627 422.992 105.456 423.194 105.487 423.222Z" fill="#17282F"/>
<path d="M104.583 422.513C104.605 422.547 104.83 422.471 105.085 422.343C105.341 422.215 105.531 422.083 105.51 422.048C105.487 422.014 105.263 422.09 105.008 422.218C104.752 422.346 104.562 422.479 104.583 422.513Z" fill="#17282F"/>
<path d="M104.186 421.299C104.177 421.337 104.462 421.435 104.822 421.518C105.183 421.602 105.482 421.639 105.491 421.601C105.5 421.563 105.216 421.465 104.855 421.382C104.495 421.298 104.195 421.262 104.186 421.299Z" fill="#17282F"/>
<path d="M104.138 420.495C104.116 420.526 104.405 420.727 104.823 420.848C105.241 420.971 105.597 420.96 105.597 420.922C105.599 420.882 105.262 420.831 104.866 420.713C104.468 420.598 104.16 420.46 104.138 420.495Z" fill="#17282F"/>
<path d="M106.337 422.407C106.347 422.418 106.508 422.257 106.545 421.921C106.562 421.756 106.54 421.549 106.446 421.339C106.341 421.146 106.209 420.882 105.861 420.82C105.67 420.8 105.535 420.973 105.537 421.102C105.522 421.233 105.56 421.357 105.599 421.458C105.677 421.667 105.779 421.844 105.879 421.984C106.08 422.263 106.26 422.393 106.272 422.381C106.29 422.366 106.142 422.214 105.972 421.934C105.888 421.795 105.802 421.621 105.735 421.422C105.66 421.243 105.647 420.95 105.856 420.961C106.062 420.987 106.226 421.214 106.316 421.388C106.406 421.574 106.438 421.759 106.435 421.913C106.43 422.223 106.311 422.396 106.337 422.407Z" fill="#17282F"/>
<path d="M92.9586 418.658C92.9556 418.685 93.3243 418.707 93.8766 418.892C94.424 419.071 95.1569 419.451 95.7233 420.091C96.2895 420.731 96.5412 421.461 96.617 421.985C96.6978 422.514 96.6419 422.846 96.6709 422.849C96.68 422.85 96.7036 422.769 96.7235 422.619C96.7438 422.469 96.7532 422.249 96.7263 421.977C96.6767 421.436 96.4326 420.67 95.8425 420.004C95.2512 419.338 94.4797 418.957 93.909 418.796C93.622 418.714 93.3821 418.675 93.2166 418.66C93.0509 418.647 92.9589 418.65 92.9586 418.658Z" fill="#17282F"/>
<path d="M98.5022 422.157C98.4889 422.191 99.2774 422.493 100.293 422.723C101.308 422.958 102.151 423.03 102.154 422.994C102.159 422.953 101.332 422.818 100.326 422.587C99.3198 422.358 98.5162 422.118 98.5022 422.157Z" fill="#17282F"/>
<path d="M96.049 421.613C96.0125 421.635 96.0806 421.785 96.125 421.973C96.1725 422.162 96.1812 422.323 96.2251 422.33C96.2656 422.339 96.3303 422.165 96.2762 421.947C96.2236 421.73 96.0823 421.592 96.049 421.613Z" fill="#17282F"/>
<path d="M95.3615 420.365C95.3252 420.386 95.3793 420.521 95.4818 420.669C95.5841 420.817 95.6966 420.921 95.7323 420.901C95.7683 420.88 95.7141 420.744 95.6119 420.596C95.5094 420.449 95.3971 420.345 95.3615 420.365Z" fill="#17282F"/>
<path d="M94.1467 419.597C94.1467 419.637 94.3133 419.672 94.484 419.772C94.6566 419.868 94.7667 419.99 94.8051 419.971C94.8438 419.957 94.7751 419.772 94.5619 419.652C94.3499 419.531 94.1419 419.559 94.1467 419.597Z" fill="#17282F"/>
<path d="M93.2553 419.165C93.2323 419.196 93.291 419.271 93.3866 419.33C93.4824 419.389 93.5783 419.411 93.6019 419.38C93.6249 419.348 93.5662 419.273 93.4707 419.214C93.3747 419.155 93.2789 419.132 93.2553 419.165Z" fill="#17282F"/>
<path d="M130.16 353.541C130.15 353.524 130.236 353.439 130.441 353.386C130.644 353.332 130.97 353.336 131.32 353.495C131.657 353.656 132.046 353.985 132.152 354.514C132.271 355.049 131.927 355.648 131.401 355.93C130.885 356.227 130.18 356.209 129.769 355.836C129.357 355.477 129.265 354.981 129.296 354.617C129.334 354.243 129.498 353.968 129.65 353.826C129.801 353.681 129.92 353.652 129.93 353.669C129.981 353.713 129.574 353.983 129.581 354.629C129.586 354.934 129.701 355.32 130.007 355.558C130.302 355.804 130.795 355.815 131.202 355.588C131.609 355.362 131.852 354.945 131.786 354.571C131.732 354.194 131.451 353.9 131.185 353.74C130.619 353.404 130.172 353.607 130.16 353.541Z" fill="#33535F"/>
<path d="M129.357 324.919C129.348 324.902 129.434 324.818 129.639 324.764C129.842 324.71 130.168 324.714 130.518 324.873C130.855 325.034 131.244 325.363 131.35 325.892C131.469 326.427 131.125 327.026 130.599 327.308C130.082 327.605 129.377 327.587 128.966 327.213C128.554 326.853 128.463 326.36 128.493 325.995C128.531 325.621 128.695 325.346 128.847 325.204C128.999 325.059 129.117 325.029 129.128 325.047C129.179 325.091 128.772 325.361 128.778 326.007C128.783 326.312 128.899 326.698 129.204 326.936C129.499 327.182 129.992 327.192 130.399 326.966C130.807 326.741 131.049 326.323 130.983 325.95C130.929 325.573 130.648 325.278 130.383 325.118C129.816 324.782 129.37 324.984 129.357 324.919Z" fill="#33535F"/>
<path d="M128.885 299.623C128.876 299.604 128.962 299.521 129.167 299.468C129.37 299.413 129.697 299.416 130.047 299.576C130.384 299.736 130.772 300.066 130.878 300.595C130.998 301.13 130.654 301.73 130.127 302.011C129.611 302.308 128.906 302.29 128.495 301.917C128.083 301.557 127.991 301.062 128.021 300.699C128.06 300.324 128.224 300.048 128.376 299.907C128.528 299.761 128.646 299.733 128.656 299.75C128.707 299.794 128.3 300.064 128.307 300.71C128.312 301.015 128.428 301.401 128.734 301.639C129.029 301.885 129.521 301.896 129.928 301.669C130.336 301.444 130.579 301.026 130.512 300.653C130.458 300.275 130.177 299.981 129.911 299.821C129.345 299.485 128.898 299.688 128.885 299.623Z" fill="#33535F"/>
<path d="M127.961 272.556C127.952 272.538 128.038 272.455 128.243 272.401C128.446 272.346 128.772 272.35 129.122 272.51C129.459 272.67 129.848 273 129.954 273.529C130.073 274.064 129.729 274.663 129.203 274.945C128.686 275.241 127.981 275.223 127.57 274.85C127.158 274.49 127.067 273.996 127.098 273.631C127.135 273.257 127.299 272.982 127.451 272.84C127.603 272.695 127.721 272.666 127.732 272.683C127.782 272.727 127.376 272.998 127.382 273.643C127.388 273.948 127.503 274.334 127.809 274.572C128.103 274.818 128.597 274.828 129.004 274.603C129.41 274.377 129.653 273.96 129.587 273.586C129.533 273.209 129.252 272.914 128.987 272.754C128.421 272.419 127.974 272.622 127.961 272.556Z" fill="#33535F"/>
<path d="M175.096 243.263L357.72 241.969L362.811 362.995L173.71 361.286L175.096 243.263Z" fill="#F03D5F"/>
<path d="M175.096 243.263L261.527 175.093C265.187 172.207 270.423 172.223 274.065 175.132L357.72 241.97L175.096 243.263Z" fill="#F03D5F"/>
<path d="M175.096 243.263L261.527 175.094C263.348 173.657 265.56 172.94 267.772 172.94C270.004 172.94 272.235 173.671 274.065 175.132L357.72 241.97L175.096 243.263Z" fill="#BA2C42"/>
<path d="M173.71 361.286C173.482 361.078 188.102 345.518 206.361 326.536C224.627 307.549 239.613 292.33 239.841 292.538C240.068 292.747 225.451 308.303 207.186 327.291C188.928 346.272 173.938 361.494 173.71 361.286Z" fill="#17282F"/>
<path d="M362.811 362.995C362.577 363.197 348.34 347.952 331.013 328.948C313.681 309.938 299.824 294.367 300.058 294.164C300.291 293.963 314.526 309.205 331.859 328.216C349.185 347.219 363.044 362.793 362.811 362.995Z" fill="#17282F"/>
<path d="M266.016 313.377L239.545 292.964C239.76 292.702 239.862 292.557 239.841 292.538C239.839 292.537 239.837 292.536 239.834 292.536C239.797 292.536 239.655 292.647 239.413 292.863L175.096 243.263L357.72 241.97L266.016 313.377Z" fill="#7E1C2C"/>
<path d="M239.545 292.964L239.413 292.862C239.655 292.647 239.797 292.536 239.834 292.536C239.837 292.536 239.839 292.536 239.841 292.538C239.862 292.557 239.76 292.702 239.545 292.964Z" fill="#0A1013"/>
<path d="M184.293 249.875L184.008 194.278L343.92 192.436L345.722 250.933L266.007 312.443L184.293 249.875Z" fill="#FAFAF9"/>
<path d="M184.293 249.875C184.293 249.875 184.81 250.253 185.793 250.996C186.778 251.743 188.232 252.847 190.131 254.289C193.929 257.186 199.506 261.436 206.633 266.87C220.872 277.75 241.306 293.365 266.109 312.316L265.904 312.317C288.868 294.586 316.116 273.546 345.599 250.781L345.523 250.939C345.178 239.779 344.817 228.071 344.449 216.158C344.202 208.138 343.959 200.212 343.719 192.442L343.922 192.632C279.48 193.346 222.631 193.977 184.01 194.405L184.137 194.278C184.2 211.772 184.25 225.661 184.284 235.184C184.294 239.945 184.301 243.614 184.306 246.098C184.305 247.335 184.305 248.276 184.304 248.915C184.301 249.548 184.293 249.875 184.293 249.875C184.293 249.875 184.28 249.559 184.271 248.93C184.264 248.295 184.254 247.358 184.24 246.127C184.22 243.646 184.19 239.983 184.151 235.23C184.088 225.696 183.995 211.791 183.879 194.279L183.878 194.154L184.006 194.152C222.628 193.691 279.476 193.011 343.918 192.241L344.114 192.239L344.121 192.43C344.361 200.201 344.604 208.126 344.852 216.146C345.218 228.06 345.578 239.767 345.921 250.927L345.925 251.025L345.846 251.085C316.347 273.831 289.085 294.853 266.11 312.57L266.007 312.649L265.905 312.57C241.121 293.555 220.703 277.888 206.474 266.971C199.377 261.513 193.826 257.244 190.043 254.335C188.162 252.883 186.723 251.771 185.747 251.018C184.779 250.267 184.293 249.875 184.293 249.875Z" fill="#17282F"/>
<path d="M318.648 220.429C318.649 220.536 294.193 220.769 264.032 220.947C233.86 221.126 209.408 221.183 209.407 221.074C209.406 220.966 233.857 220.733 264.029 220.554C294.19 220.376 318.647 220.32 318.648 220.429Z" fill="#17282F"/>
<path d="M318.648 236.132C318.649 236.241 294.193 236.474 264.032 236.652C233.86 236.831 209.408 236.887 209.407 236.779C209.406 236.67 233.857 236.438 264.029 236.259C294.19 236.081 318.647 236.024 318.648 236.132Z" fill="#17282F"/>
<path d="M318.648 254.233C318.649 254.341 294.193 254.574 264.032 254.753C233.86 254.932 209.408 254.988 209.407 254.88C209.406 254.771 233.857 254.538 264.029 254.359C294.19 254.18 318.647 254.124 318.648 254.233Z" fill="#17282F"/>
<path d="M318.648 272.333C318.649 272.441 295.317 272.668 266.542 272.838C237.756 273.008 214.429 273.059 214.428 272.95C214.427 272.842 237.754 272.616 266.539 272.445C295.314 272.275 318.647 272.225 318.648 272.333Z" fill="#17282F"/>
<path d="M298.195 288.22C298.195 288.234 297.973 288.249 297.553 288.264C297.097 288.277 296.486 288.293 295.717 288.313C294.081 288.34 291.783 288.376 288.961 288.422C283.222 288.503 275.358 288.612 266.673 288.733C257.965 288.875 250.081 288.923 244.376 288.93C241.553 288.923 239.255 288.917 237.619 288.913C236.851 288.903 236.239 288.894 235.782 288.888C235.362 288.878 235.141 288.866 235.141 288.853C235.141 288.839 235.362 288.825 235.781 288.81C236.238 288.797 236.85 288.781 237.618 288.761C239.254 288.734 241.551 288.697 244.373 288.652C250.113 288.571 257.976 288.462 266.666 288.34C275.37 288.198 283.253 288.151 288.958 288.144C291.781 288.151 294.079 288.157 295.715 288.16C296.485 288.17 297.097 288.179 297.553 288.186C297.973 288.195 298.195 288.207 298.195 288.22Z" fill="#17282F"/>
<path d="M277.608 303.492C277.608 303.6 272.393 303.689 265.963 303.689C259.529 303.689 254.316 303.6 254.316 303.492C254.316 303.383 259.529 303.295 265.963 303.295C272.393 303.295 277.608 303.383 277.608 303.492Z" fill="#17282F"/>
<path d="M350.751 272.333C350.751 282.732 342.103 291.162 331.434 291.162C320.767 291.162 312.118 282.732 312.118 272.333C312.118 261.934 320.767 253.504 331.434 253.504C342.103 253.504 350.751 261.934 350.751 272.333Z" fill="#17282F"/>
<path d="M345.722 272.333C345.722 282.732 337.073 291.162 326.406 291.162C315.738 291.162 307.089 282.732 307.089 272.333C307.089 261.934 315.738 253.504 326.406 253.504C337.073 253.504 345.722 261.934 345.722 272.333Z" fill="#33535F"/>
<path d="M328.861 263.567V279.221H325.879V266.004H322.484V263.567H328.861Z" fill="#E7E8E5"/>
<path d="M185.546 168.887L203.211 168.881L200.823 166.206L200.82 159.799C200.819 156.334 197.936 153.526 194.382 153.527C190.826 153.528 187.945 156.338 187.947 159.803L187.948 165.901L185.546 168.887Z" fill="#F03D5F"/>
<path d="M191.909 168.041C191.95 169.046 192.63 170 193.581 170.387C194.533 170.776 195.706 170.579 196.47 169.904C197.234 169.228 197.547 168.108 197.242 167.147" fill="#F03D5F"/>
<path d="M195.362 154.509L193.628 154.51L193.627 150.92H195.36L195.362 154.509Z" fill="#F03D5F"/>
<path d="M220.137 157.102C220.127 157.103 220.086 156.95 220.014 156.651C219.938 156.328 219.836 155.888 219.704 155.322C219.599 154.73 219.359 154.028 219.077 153.199C218.926 152.789 218.817 152.326 218.604 151.869C218.397 151.409 218.178 150.919 217.946 150.402C216.951 148.371 215.5 145.963 213.263 143.657C211.041 141.354 208.04 139.17 204.343 137.673C202.513 136.868 200.474 136.392 198.349 136.009C196.207 135.76 193.949 135.594 191.645 135.905C190.484 135.973 189.339 136.268 188.164 136.496C187.578 136.618 187.013 136.838 186.429 137.005C185.847 137.179 185.262 137.358 184.701 137.621C182.386 138.483 180.198 139.837 178.15 141.443C174.037 144.654 170.824 149.491 169.405 155.079C168.693 157.875 168.546 160.869 168.898 163.838C169.186 166.819 170.131 169.776 171.551 172.499L172 173.32L172.059 173.428L172.025 173.54C170.597 178.106 169.197 182.584 167.841 186.922L167.474 186.599C171.288 184.661 174.986 182.781 178.535 180.978L178.671 180.908L178.797 181.002C182.361 183.675 186.435 185.297 190.442 185.932C194.461 186.568 198.388 186.186 201.882 185.171C205.384 184.156 208.446 182.464 210.929 180.452C213.42 178.44 215.334 176.116 216.749 173.815C218.15 171.49 218.981 169.176 219.572 167.124C220.061 165.041 220.295 163.214 220.337 161.718C220.343 160.973 220.347 160.311 220.351 159.733C220.3 159.168 220.257 158.688 220.22 158.29C220.19 157.919 220.165 157.626 220.147 157.405C220.133 157.205 220.129 157.103 220.137 157.102C220.144 157.101 220.161 157.201 220.191 157.399C220.22 157.619 220.257 157.91 220.305 158.282C220.353 158.679 220.411 159.162 220.478 159.728C220.486 160.309 220.495 160.976 220.505 161.725C220.489 163.232 220.278 165.078 219.808 167.19C219.235 169.268 218.416 171.62 217.017 173.985C215.603 176.328 213.68 178.696 211.165 180.754C208.659 182.811 205.559 184.545 202.006 185.592C198.461 186.639 194.47 187.042 190.378 186.408C186.298 185.775 182.143 184.133 178.502 181.415L178.764 181.438C175.219 183.247 171.524 185.132 167.712 187.076L167.155 187.361L167.344 186.753C168.699 182.413 170.095 177.935 171.521 173.369L171.545 173.588L171.086 172.749C169.634 169.966 168.669 166.942 168.376 163.894C168.018 160.86 168.172 157.799 168.902 154.943C170.358 149.234 173.649 144.311 177.846 141.049C179.936 139.419 182.169 138.048 184.527 137.177C185.098 136.913 185.694 136.731 186.287 136.557C186.881 136.389 187.457 136.168 188.053 136.047C189.248 135.818 190.414 135.524 191.594 135.459C193.935 135.154 196.23 135.331 198.402 135.596C200.559 135.996 202.626 136.491 204.477 137.318C208.22 138.859 211.244 141.096 213.473 143.447C215.716 145.801 217.156 148.251 218.131 150.313C218.357 150.838 218.571 151.335 218.772 151.802C218.98 152.266 219.081 152.735 219.225 153.15C219.494 153.99 219.719 154.7 219.808 155.298C219.918 155.87 220.004 156.316 220.066 156.642C220.122 156.945 220.146 157.1 220.137 157.102Z" fill="#17282F"/>
<path d="M433.757 336.322C436.286 344.665 434.366 355.384 431.302 363.554C428.238 371.726 422.422 378.891 414.969 383.678C414.129 384.218 413.052 384.74 412.167 384.274C411.442 383.892 411.19 383.013 411.031 382.224C409.236 373.284 410.491 363.788 414.553 355.584C418.615 347.38 425.461 340.513 433.757 336.322Z" fill="#F03D5F"/>
<path d="M412.924 384.455C412.663 384.455 412.408 384.401 412.167 384.274C411.442 383.892 411.19 383.013 411.031 382.224C410.498 379.569 410.234 376.867 410.232 374.163C410.229 367.76 411.697 361.353 414.553 355.584C418.615 347.38 425.461 340.513 433.757 336.322C434.572 339.011 434.925 341.946 434.926 344.963C434.929 351.309 433.378 358.016 431.302 363.554C428.238 371.726 422.422 378.891 414.969 383.678C414.358 384.071 413.621 384.455 412.924 384.455Z" fill="#DA314B"/>
<path d="M395.723 296.739C401.056 296.597 404.569 302.37 405.104 307.543C405.638 312.716 404.455 318.087 406.013 323.059C407.992 329.374 414.048 333.904 415.883 340.26C418.046 347.755 413.828 355.534 413.626 363.318C413.528 367.105 414.386 370.933 413.668 374.656C412.457 380.934 406.31 385.953 399.757 386.017C393.203 386.081 386.956 381.181 385.617 374.927C384.368 369.096 387.005 362.902 385.424 357.148C384.255 352.894 380.868 349.284 380.592 344.889C380.264 339.66 384.416 335.139 385.186 329.953C385.955 324.768 383.269 319.704 382.869 314.477C382.151 305.103 386.133 297.742 395.723 296.739Z" fill="#F03D5F"/>
<path d="M407.403 403.491C407.42 403.494 407.474 403.315 407.56 402.971C407.654 402.574 407.77 402.075 407.913 401.463C408.202 400.152 408.647 398.259 409.23 395.928C410.389 391.267 412.211 384.879 414.725 377.984C417.249 371.091 419.984 365.017 422.108 360.692C423.168 358.527 424.05 356.786 424.678 355.592C424.963 355.031 425.196 354.572 425.382 354.207C425.538 353.887 425.613 353.716 425.597 353.708C425.583 353.699 425.477 353.855 425.292 354.16C425.085 354.514 424.824 354.958 424.504 355.502C423.822 356.671 422.89 358.39 421.787 360.539C419.577 364.835 416.782 370.905 414.25 377.819C411.727 384.734 409.956 391.159 408.882 395.849C408.342 398.194 407.95 400.101 407.721 401.426C407.614 402.045 407.529 402.55 407.46 402.953C407.406 403.303 407.386 403.488 407.403 403.491Z" fill="#17282F"/>
<path d="M395.947 322.306C395.929 322.307 395.953 322.594 396.016 323.137C396.091 323.722 396.19 324.513 396.317 325.51C396.602 327.613 397.003 330.579 397.495 334.224C398.499 341.581 399.874 351.744 401.323 362.979C402.77 374.217 404.017 384.397 404.912 391.768C405.359 395.418 405.723 398.387 405.981 400.494C406.112 401.49 406.216 402.281 406.293 402.865C406.369 403.406 406.418 403.69 406.435 403.688C406.452 403.686 406.437 403.399 406.394 402.854C406.34 402.268 406.268 401.473 406.177 400.475C405.957 398.362 405.647 395.387 405.267 391.728C404.463 384.347 403.271 374.158 401.823 362.917C400.374 351.68 398.943 341.522 397.849 334.176C397.29 330.54 396.834 327.581 396.512 325.483C396.346 324.491 396.214 323.705 396.118 323.124C396.022 322.585 395.963 322.303 395.947 322.306Z" fill="#17282F"/>
<path d="M425.998 397.902H385.537V393.295H425.998V397.902Z" fill="#17282F"/>
<path d="M389.289 397.902L394.04 425.839H419.137L422.426 397.902H389.289Z" fill="#17282F"/>
<path d="M422.555 397.712C422.556 397.821 415.082 397.999 405.863 398.112C396.64 398.223 389.166 398.226 389.165 398.118C389.163 398.009 396.636 397.83 405.857 397.718C415.077 397.606 422.553 397.603 422.555 397.712Z" fill="#33535F"/>
<path d="M421.176 411.695C421.176 411.702 421.099 411.71 420.948 411.721C420.775 411.729 420.553 411.739 420.277 411.752C419.688 411.765 418.813 411.789 417.693 411.655C416.588 411.516 415.176 411.209 413.868 410.257C413.223 409.787 412.603 409.155 412.202 408.335C411.803 407.526 411.628 406.507 411.963 405.528C412.274 404.555 413.285 403.703 414.486 403.751C415.078 403.78 415.652 404.076 416.047 404.52C416.445 404.964 416.7 405.518 416.828 406.102C417.319 408.489 415.601 411.141 412.985 411.975C410.325 412.851 407.122 411.371 405.804 408.767C405.475 408.117 405.255 407.4 405.221 406.654C405.184 405.913 405.342 405.125 405.808 404.482C406.265 403.851 406.99 403.373 407.821 403.304C408.658 403.226 409.487 403.679 409.947 404.33C410.423 404.975 410.658 405.76 410.641 406.536C410.629 407.306 410.411 408.058 410.06 408.724C409.365 410.074 408.15 411.078 406.834 411.706C405.509 412.338 404.098 412.67 402.706 412.841C401.313 413.006 399.892 412.939 398.604 412.493C397.323 412.049 396.202 411.224 395.522 410.136C394.822 409.057 394.705 407.696 395.124 406.575C395.515 405.447 396.503 404.525 397.666 404.362C398.808 404.207 399.957 404.631 400.625 405.439C401.303 406.272 401.269 407.396 400.889 408.212C400.523 409.058 399.861 409.676 399.19 410.105C398.513 410.54 397.816 410.82 397.178 411.056C396.537 411.291 395.943 411.48 395.402 411.631C394.324 411.935 393.466 412.098 392.884 412.194C392.592 412.241 392.369 412.271 392.219 412.287C392.068 412.304 391.991 412.308 391.989 412.302C391.989 412.295 392.064 412.276 392.212 412.247C392.382 412.213 392.598 412.17 392.869 412.116C393.444 411.995 394.292 411.81 395.358 411.485C395.891 411.323 396.477 411.124 397.108 410.882C397.737 410.637 398.417 410.351 399.064 409.922C399.708 409.498 400.32 408.908 400.653 408.115C400.999 407.346 401.006 406.339 400.403 405.612C399.804 404.897 398.741 404.511 397.715 404.663C396.685 404.813 395.794 405.641 395.439 406.683C395.062 407.725 395.172 408.958 395.824 409.957C396.459 410.961 397.518 411.738 398.727 412.152C399.946 412.569 401.308 412.632 402.659 412.469C404.012 412.299 405.393 411.969 406.658 411.361C407.918 410.756 409.053 409.809 409.702 408.548C410.363 407.323 410.493 405.714 409.621 404.563C409.214 403.992 408.537 403.635 407.853 403.695C407.17 403.748 406.531 404.16 406.136 404.707C405.736 405.256 405.586 405.959 405.619 406.637C405.649 407.319 405.852 407.99 406.158 408.597C407.385 411.042 410.413 412.442 412.871 411.63C415.32 410.868 416.948 408.357 416.501 406.168C416.387 405.632 416.154 405.123 415.805 404.728C415.456 404.334 414.971 404.084 414.468 404.054C413.44 404.002 412.517 404.743 412.233 405.618C411.918 406.505 412.066 407.462 412.434 408.228C412.803 409.006 413.387 409.62 414.005 410.081C415.254 411.018 416.625 411.342 417.714 411.503C418.817 411.659 419.689 411.66 420.276 411.673C420.553 411.676 420.773 411.679 420.948 411.681C421.099 411.683 421.176 411.689 421.176 411.695Z" fill="#33535F"/>
</svg>
